{"glyphs":{"0":{"ha":840,"x_min":42,"x_max":798,"o":"m 420 -18 q 266 21 335 -18 q 146 130 197 60 q 69 291 96 199 q 42 486 42 382 q 69 682 42 590 q 146 842 96 773 q 266 951 197 912 q 420 990 335 990 q 574 951 505 990 q 694 842 644 912 q 771 682 744 773 q 798 486 798 590 q 771 291 798 382 q 694 130 744 199 q 574 21 644 60 q 420 -18 505 -18 m 420 151 q 543 199 494 151 q 615 322 592 246 q 639 486 639 399 q 614 655 639 578 q 541 776 590 731 q 420 821 492 821 q 297 773 345 821 q 224 649 248 726 q 201 486 201 573 q 225 322 201 399 q 298 199 249 246 q 420 151 347 151 z "},"1":{"ha":458,"x_min":56,"x_max":347,"o":"m 178 0 l 178 803 l 56 803 l 101 972 l 347 972 l 347 0 l 178 0 z "},"2":{"ha":794,"x_min":56,"x_max":710,"o":"m 56 0 l 56 151 q 163 236 101 185 q 289 344 224 286 q 410 462 354 403 q 501 575 467 522 q 536 667 536 628 q 516 744 536 709 q 460 800 495 779 q 383 821 426 821 q 306 800 341 821 q 251 744 272 779 q 230 667 230 709 l 60 667 q 105 831 60 758 q 222 948 149 905 q 383 990 296 990 q 545 947 472 990 q 662 830 618 903 q 706 667 706 756 q 659 507 706 588 q 536 343 613 427 q 365 169 459 259 l 710 169 l 710 0 l 56 0 z "},"3":{"ha":710,"x_min":42,"x_max":669,"o":"m 355 -18 q 196 24 267 -18 q 83 136 125 65 q 42 292 42 206 l 211 292 q 252 193 211 235 q 355 151 292 151 q 426 170 393 151 q 479 222 459 190 q 499 292 499 253 q 440 406 499 368 q 285 444 381 444 l 285 574 q 421 607 371 574 q 472 703 472 640 q 435 787 472 751 q 351 822 399 822 q 286 806 317 822 q 235 763 256 790 q 215 703 215 735 l 46 703 q 88 848 46 783 q 200 952 131 913 q 349 992 269 992 q 494 953 427 992 q 601 849 560 914 q 641 703 641 783 q 615 592 641 646 q 540 516 588 538 q 611 465 582 500 q 654 384 640 429 q 669 292 669 338 q 626 136 669 207 q 511 24 583 66 q 355 -18 440 -18 z "},"4":{"ha":804,"x_min":56,"x_max":721,"o":"m 469 0 l 469 235 l 56 235 l 56 406 l 430 972 l 639 972 l 639 405 l 721 405 l 721 235 l 639 235 l 639 0 l 469 0 m 252 406 l 469 405 l 469 741 l 252 406 z "},"5":{"ha":798,"x_min":49,"x_max":715,"o":"m 382 -18 q 213 27 288 -18 q 93 149 137 73 q 49 315 49 224 l 218 315 q 240 232 218 269 q 300 173 263 195 q 382 151 337 151 q 464 173 427 151 q 523 232 501 195 q 545 315 545 269 q 501 431 545 382 q 351 481 457 481 l 101 481 l 204 972 l 682 972 l 682 803 l 342 803 l 310 650 l 379 649 q 553 601 478 646 q 672 482 629 556 q 715 315 715 408 q 670 148 715 224 q 550 27 625 72 q 382 -18 474 -18 z "},"6":{"ha":763,"x_min":35,"x_max":721,"o":"m 376 -18 q 206 28 283 -18 q 81 153 128 75 q 35 325 35 231 q 82 499 35 417 l 354 972 l 551 972 l 368 656 q 502 639 438 662 q 615 570 565 615 q 692 461 664 524 q 721 325 721 399 q 675 153 721 231 q 550 28 628 75 q 376 -18 472 -18 m 376 151 q 467 176 427 151 q 529 240 506 201 q 551 324 551 280 q 528 412 551 372 q 466 475 506 451 q 378 499 427 499 q 288 474 327 499 q 226 410 249 450 q 204 324 204 370 q 228 236 204 275 q 292 174 253 197 q 376 151 331 151 z "},"7":{"ha":764,"x_min":28,"x_max":736,"o":"m 76 0 l 540 803 l 28 803 l 28 972 l 736 972 l 736 803 l 272 0 l 76 0 z "},"8":{"ha":757,"x_min":56,"x_max":701,"o":"m 378 -18 q 215 23 288 -18 q 99 133 142 64 q 56 287 56 202 q 86 412 56 353 q 167 511 116 471 q 101 598 126 548 q 76 706 76 649 q 117 849 76 785 q 227 952 158 914 q 378 990 295 990 q 530 952 461 990 q 639 849 598 914 q 679 706 679 785 q 654 598 679 649 q 588 511 629 548 q 671 412 641 471 q 701 287 701 353 q 658 133 701 203 q 541 23 615 64 q 378 -18 467 -18 m 378 592 q 464 625 428 592 q 500 706 500 659 q 464 787 500 753 q 378 821 428 821 q 291 787 327 821 q 256 706 256 753 q 291 625 256 659 q 378 592 327 592 m 378 151 q 480 191 438 151 q 522 287 522 231 q 480 383 522 343 q 378 422 438 422 q 276 383 319 422 q 233 287 233 343 q 276 191 233 231 q 378 151 319 151 z "},"9":{"ha":762,"x_min":42,"x_max":720,"o":"m 201 0 l 388 323 q 257 342 319 319 q 146 410 194 365 q 70 517 98 455 q 42 651 42 578 q 88 821 42 744 q 210 944 133 898 q 382 990 288 990 q 551 944 474 990 q 674 822 628 899 q 720 651 720 744 q 673 479 720 561 l 397 0 l 201 0 m 381 481 q 469 505 431 481 q 529 568 508 529 q 551 651 551 607 q 527 739 551 700 q 465 799 503 777 q 382 821 426 821 q 293 797 332 821 q 233 734 255 773 q 210 651 210 695 q 233 566 210 605 q 294 504 256 527 q 381 481 333 481 z "},"A":{"ha":1013,"x_min":56,"x_max":957,"o":"m 408 972 l 603 972 l 957 0 l 777 0 l 715 172 l 298 172 l 235 0 l 56 0 l 408 972 m 360 342 l 652 342 l 506 742 l 360 342 z "},"Á":{"ha":1013,"x_min":56,"x_max":957,"o":"m 408 972 l 603 972 l 957 0 l 777 0 l 715 172 l 298 172 l 235 0 l 56 0 l 408 972 m 360 342 l 652 342 l 506 742 l 360 342 m 479 1068 l 535 1268 l 704 1268 l 567 1068 l 479 1068 z "},"Â":{"ha":1013,"x_min":56,"x_max":957,"o":"m 408 972 l 603 972 l 957 0 l 777 0 l 715 172 l 298 172 l 235 0 l 56 0 l 408 972 m 360 342 l 652 342 l 506 742 l 360 342 m 422 1250 l 590 1250 l 659 1088 l 549 1088 l 507 1190 l 463 1088 l 353 1088 l 422 1250 z "},"Ä":{"ha":1013,"x_min":56,"x_max":957,"o":"m 408 972 l 603 972 l 957 0 l 777 0 l 715 172 l 298 172 l 235 0 l 56 0 l 408 972 m 360 342 l 652 342 l 506 742 l 360 342 m 369 1061 q 306 1086 332 1061 q 281 1148 281 1110 q 306 1210 281 1185 q 369 1235 332 1235 q 431 1210 406 1235 q 456 1148 456 1185 q 431 1086 456 1110 q 369 1061 406 1061 m 644 1061 q 581 1086 607 1061 q 556 1148 556 1110 q 581 1210 556 1185 q 644 1235 607 1235 q 706 1210 681 1235 q 732 1148 732 1185 q 706 1086 732 1110 q 644 1061 681 1061 z "},"À":{"ha":1013,"x_min":56,"x_max":957,"o":"m 408 972 l 603 972 l 957 0 l 777 0 l 715 172 l 298 172 l 235 0 l 56 0 l 408 972 m 360 342 l 652 342 l 506 742 l 360 342 m 324 1268 l 494 1268 l 549 1068 l 461 1068 l 324 1268 z "},"Å":{"ha":1013,"x_min":56,"x_max":957,"o":"m 408 972 l 603 972 l 957 0 l 777 0 l 715 172 l 298 172 l 235 0 l 56 0 l 408 972 m 360 342 l 652 342 l 506 742 l 360 342 m 506 1033 q 415 1071 453 1033 q 377 1163 377 1110 q 415 1252 377 1215 q 506 1290 453 1290 q 597 1252 559 1290 q 635 1163 635 1215 q 597 1070 635 1108 q 506 1033 559 1033 m 506 1099 q 550 1117 532 1099 q 569 1163 569 1135 q 550 1206 569 1188 q 506 1224 532 1224 q 462 1206 480 1224 q 444 1163 444 1188 q 462 1117 444 1135 q 506 1099 480 1099 z "},"Ã":{"ha":1013,"x_min":56,"x_max":957,"o":"m 408 972 l 603 972 l 957 0 l 777 0 l 715 172 l 298 172 l 235 0 l 56 0 l 408 972 m 360 342 l 652 342 l 506 742 l 360 342 m 614 1044 q 553 1062 588 1044 q 483 1102 518 1080 q 422 1138 449 1124 q 387 1142 396 1151 q 381 1081 369 1122 l 281 1054 q 272 1153 263 1108 q 314 1224 281 1197 q 397 1251 346 1251 q 456 1236 423 1251 q 522 1201 489 1221 q 581 1166 556 1181 q 618 1151 607 1151 q 639 1172 639 1151 q 631 1211 638 1192 l 732 1244 q 740 1142 751 1187 q 696 1070 729 1097 q 614 1044 663 1044 z "},"Æ":{"ha":1165,"x_min":56,"x_max":1096,"o":"m 56 0 l 408 972 l 1096 972 l 1096 803 l 753 803 l 753 571 l 1029 571 l 1029 401 l 753 401 l 753 169 l 1096 169 l 1096 0 l 583 0 l 583 172 l 298 172 l 235 0 l 56 0 m 360 342 l 583 342 l 583 803 l 528 803 l 360 342 z "},"B":{"ha":815,"x_min":83,"x_max":760,"o":"m 83 0 l 83 972 l 438 972 q 577 941 515 972 q 675 850 639 909 q 712 712 712 792 q 688 606 712 658 q 614 533 665 553 q 706 472 674 517 q 748 370 737 426 q 760 269 760 315 q 722 131 760 192 q 619 35 683 70 q 477 0 555 0 l 83 0 m 253 596 l 418 596 q 506 628 469 596 q 542 713 542 660 q 506 798 542 769 q 418 826 469 826 l 253 826 l 253 596 m 253 145 l 460 145 q 565 190 522 145 q 608 301 608 234 q 589 375 608 340 q 535 431 569 410 q 460 453 501 453 l 253 453 l 253 145 z "},"C":{"ha":971,"x_min":42,"x_max":901,"o":"m 519 -18 q 334 21 421 -18 q 182 130 247 60 q 79 291 116 199 q 42 486 42 382 q 79 682 42 591 q 182 843 116 774 q 334 951 247 912 q 519 990 421 990 q 737 935 638 990 q 901 790 836 881 l 750 709 q 648 790 708 760 q 519 821 588 821 q 364 775 434 821 q 252 654 294 730 q 211 486 211 578 q 253 318 211 394 q 365 197 294 242 q 519 151 435 151 q 649 182 589 151 q 750 264 709 213 l 901 182 q 737 36 836 91 q 519 -18 638 -18 z "},"Ç":{"ha":971,"x_min":42,"x_max":901,"o":"m 519 -18 q 334 21 421 -18 q 182 130 247 60 q 79 291 116 199 q 42 486 42 382 q 79 682 42 591 q 182 843 116 774 q 334 951 247 912 q 519 990 421 990 q 737 935 638 990 q 901 790 836 881 l 750 709 q 648 790 708 760 q 519 821 588 821 q 364 775 434 821 q 252 654 294 730 q 211 486 211 578 q 253 318 211 394 q 365 197 294 242 q 519 151 435 151 q 649 182 589 151 q 750 264 709 213 l 901 182 q 737 36 836 91 q 519 -18 638 -18 m 319 -218 l 319 -92 l 392 -92 q 457 -73 426 -92 q 507 -24 488 -54 q 526 40 526 7 l 526 113 l 651 113 l 651 42 q 616 -89 651 -30 q 522 -183 581 -148 q 390 -218 463 -218 l 319 -218 z "},"D":{"ha":933,"x_min":83,"x_max":892,"o":"m 83 0 l 83 972 l 406 972 q 594 934 506 972 q 749 830 682 897 q 854 675 816 763 q 892 486 892 587 q 854 298 892 385 q 749 143 816 210 q 594 38 682 76 q 406 0 506 0 l 83 0 m 253 169 l 406 169 q 564 212 492 169 q 679 327 635 255 q 722 486 722 399 q 679 645 722 574 q 564 760 636 717 q 406 803 492 803 l 253 803 l 253 169 z "},"Ð":{"ha":1014,"x_min":69,"x_max":972,"o":"m 165 0 l 165 436 l 69 436 l 69 606 l 165 606 l 165 972 l 486 972 q 674 934 586 972 q 830 830 763 897 q 934 675 897 763 q 972 486 972 587 q 934 298 972 385 q 830 143 897 210 q 674 38 763 76 q 486 0 586 0 l 165 0 m 334 169 l 486 169 q 645 213 574 169 q 760 327 717 256 q 803 486 803 399 q 759 645 803 574 q 644 760 716 717 q 486 803 572 803 l 334 803 l 334 606 l 526 606 l 526 436 l 334 436 l 334 169 z "},"E":{"ha":763,"x_min":83,"x_max":693,"o":"m 83 0 l 83 972 l 693 972 l 693 803 l 253 803 l 253 606 l 602 606 l 602 436 l 253 436 l 253 169 l 693 169 l 693 0 l 83 0 z "},"É":{"ha":763,"x_min":83,"x_max":693,"o":"m 83 0 l 83 972 l 693 972 l 693 803 l 253 803 l 253 606 l 602 606 l 602 436 l 253 436 l 253 169 l 693 169 l 693 0 l 83 0 m 354 1068 l 410 1268 l 579 1268 l 442 1068 l 354 1068 z "},"Ê":{"ha":763,"x_min":83,"x_max":693,"o":"m 83 0 l 83 972 l 693 972 l 693 803 l 253 803 l 253 606 l 602 606 l 602 436 l 253 436 l 253 169 l 693 169 l 693 0 l 83 0 m 297 1250 l 465 1250 l 534 1088 l 424 1088 l 382 1190 l 338 1088 l 228 1088 l 297 1250 z "},"Ë":{"ha":763,"x_min":83,"x_max":693,"o":"m 83 0 l 83 972 l 693 972 l 693 803 l 253 803 l 253 606 l 602 606 l 602 436 l 253 436 l 253 169 l 693 169 l 693 0 l 83 0 m 244 1061 q 181 1086 207 1061 q 156 1148 156 1110 q 181 1210 156 1185 q 244 1235 207 1235 q 306 1210 281 1235 q 331 1148 331 1185 q 306 1086 331 1110 q 244 1061 281 1061 m 519 1061 q 456 1086 482 1061 q 431 1148 431 1110 q 456 1210 431 1185 q 519 1235 482 1235 q 581 1210 556 1235 q 607 1148 607 1185 q 581 1086 607 1110 q 519 1061 556 1061 z "},"È":{"ha":763,"x_min":83,"x_max":693,"o":"m 83 0 l 83 972 l 693 972 l 693 803 l 253 803 l 253 606 l 602 606 l 602 436 l 253 436 l 253 169 l 693 169 l 693 0 l 83 0 m 200 1268 l 369 1268 l 425 1068 l 337 1068 l 200 1268 z "},"F":{"ha":672,"x_min":83,"x_max":658,"o":"m 83 0 l 83 972 l 658 972 l 658 803 l 253 803 l 253 606 l 591 606 l 591 436 l 253 436 l 253 0 l 83 0 z "},"G":{"ha":1040,"x_min":42,"x_max":1000,"o":"m 519 -18 q 331 22 418 -18 q 179 131 244 61 q 78 292 114 201 q 42 488 42 383 q 81 689 42 597 q 188 848 120 781 q 342 952 256 915 q 523 989 428 989 q 727 940 628 989 q 901 789 826 891 l 750 708 q 643 793 703 765 q 521 821 583 821 q 368 777 439 821 q 255 657 298 733 q 211 484 211 581 q 253 316 211 392 q 366 196 295 241 q 522 151 436 151 q 684 204 609 151 q 798 350 760 257 l 621 350 l 621 498 l 997 498 q 964 299 1000 392 q 862 134 928 206 q 708 22 796 63 q 519 -18 621 -18 z "},"H":{"ha":908,"x_min":83,"x_max":825,"o":"m 656 972 l 825 972 l 825 0 l 656 0 l 656 436 l 253 436 l 253 0 l 83 0 l 83 972 l 253 972 l 253 606 l 656 606 l 656 972 z "},"I":{"ha":378,"x_min":104,"x_max":274,"o":"m 104 0 l 104 972 l 274 972 l 274 0 l 104 0 z "},"Í":{"ha":378,"x_min":104,"x_max":387,"o":"m 104 0 l 104 972 l 274 972 l 274 0 l 104 0 m 162 1068 l 217 1268 l 387 1268 l 250 1068 l 162 1068 z "},"Î":{"ha":378,"x_min":35,"x_max":342,"o":"m 104 0 l 104 972 l 274 972 l 274 0 l 104 0 m 105 1250 l 272 1250 l 342 1088 l 231 1088 l 190 1190 l 146 1088 l 35 1088 l 105 1250 z "},"Ï":{"ha":378,"x_min":-37,"x_max":415,"o":"m 104 0 l 104 972 l 274 972 l 274 0 l 104 0 m 52 1061 q -11 1086 15 1061 q -37 1148 -37 1110 q -11 1210 -37 1185 q 52 1235 15 1235 q 114 1210 88 1235 q 139 1148 139 1185 q 114 1086 139 1110 q 52 1061 88 1061 m 327 1061 q 264 1086 290 1061 q 238 1148 238 1110 q 264 1210 238 1185 q 327 1235 290 1235 q 389 1210 363 1235 q 415 1148 415 1185 q 389 1086 415 1110 q 327 1061 363 1061 z "},"Ì":{"ha":378,"x_min":8,"x_max":274,"o":"m 104 0 l 104 972 l 274 972 l 274 0 l 104 0 m 8 1268 l 177 1268 l 233 1068 l 144 1068 l 8 1268 z "},"J":{"ha":617,"x_min":28,"x_max":533,"o":"m 225 -18 q 120 0 171 -18 q 28 53 69 18 l 136 184 q 174 161 151 171 q 225 151 196 151 q 323 194 282 151 q 364 294 364 236 l 364 972 l 533 972 l 533 294 q 492 138 533 208 q 380 24 450 67 q 225 -18 310 -18 z "},"K":{"ha":815,"x_min":83,"x_max":796,"o":"m 794 0 l 573 0 l 300 381 l 253 325 l 253 0 l 83 0 l 83 972 l 253 972 l 253 588 l 574 972 l 796 972 l 410 514 l 794 0 z "},"L":{"ha":727,"x_min":83,"x_max":658,"o":"m 83 0 l 83 972 l 253 972 l 253 169 l 658 169 l 658 0 l 83 0 z "},"M":{"ha":1299,"x_min":83,"x_max":1215,"o":"m 83 0 l 272 972 l 413 972 l 649 349 l 886 972 l 1026 972 l 1215 0 l 1042 0 l 926 601 l 707 22 l 591 22 l 372 601 l 256 0 l 83 0 z "},"N":{"ha":940,"x_min":88,"x_max":851,"o":"m 88 0 l 88 972 l 272 972 l 682 306 l 682 972 l 851 972 l 851 0 l 669 0 l 258 666 l 258 0 l 88 0 z "},"Ñ":{"ha":940,"x_min":88,"x_max":851,"o":"m 88 0 l 88 972 l 272 972 l 682 306 l 682 972 l 851 972 l 851 0 l 669 0 l 258 666 l 258 0 l 88 0 m 578 1044 q 517 1062 552 1044 q 447 1102 482 1080 q 386 1138 413 1124 q 351 1142 360 1151 q 344 1081 333 1122 l 245 1054 q 236 1153 226 1108 q 277 1224 245 1197 q 361 1251 310 1251 q 420 1236 387 1251 q 486 1201 453 1221 q 545 1166 519 1181 q 582 1151 571 1151 q 602 1172 603 1151 q 595 1211 602 1192 l 696 1244 q 704 1142 715 1187 q 660 1070 693 1097 q 578 1044 627 1044 z "},"O":{"ha":1069,"x_min":56,"x_max":1014,"o":"m 535 -18 q 349 21 436 -18 q 197 130 263 60 q 93 291 131 199 q 56 486 56 382 q 93 682 56 590 q 197 842 131 773 q 349 951 263 912 q 535 990 436 990 q 721 951 634 990 q 874 842 808 912 q 977 682 940 773 q 1014 486 1014 590 q 977 291 1014 382 q 874 130 940 199 q 721 21 808 60 q 535 -18 634 -18 m 535 151 q 691 197 620 151 q 803 318 761 242 q 844 486 844 394 q 802 654 844 578 q 690 775 760 730 q 535 821 620 821 q 379 775 449 821 q 267 654 308 730 q 225 486 225 578 q 267 318 225 394 q 379 197 309 242 q 535 151 449 151 z "},"Ó":{"ha":1069,"x_min":56,"x_max":1014,"o":"m 535 -18 q 349 21 436 -18 q 197 130 263 60 q 93 291 131 199 q 56 486 56 382 q 93 682 56 590 q 197 842 131 773 q 349 951 263 912 q 535 990 436 990 q 721 951 634 990 q 874 842 808 912 q 977 682 940 773 q 1014 486 1014 590 q 977 291 1014 382 q 874 130 940 199 q 721 21 808 60 q 535 -18 634 -18 m 535 151 q 691 197 620 151 q 803 318 761 242 q 844 486 844 394 q 802 654 844 578 q 690 775 760 730 q 535 821 620 821 q 379 775 449 821 q 267 654 308 730 q 225 486 225 578 q 267 318 225 394 q 379 197 309 242 q 535 151 449 151 m 508 1068 l 563 1268 l 733 1268 l 596 1068 l 508 1068 z "},"Ô":{"ha":1069,"x_min":56,"x_max":1014,"o":"m 535 -18 q 349 21 436 -18 q 197 130 263 60 q 93 291 131 199 q 56 486 56 382 q 93 682 56 590 q 197 842 131 773 q 349 951 263 912 q 535 990 436 990 q 721 951 634 990 q 874 842 808 912 q 977 682 940 773 q 1014 486 1014 590 q 977 291 1014 382 q 874 130 940 199 q 721 21 808 60 q 535 -18 634 -18 m 535 151 q 691 197 620 151 q 803 318 761 242 q 844 486 844 394 q 802 654 844 578 q 690 775 760 730 q 535 821 620 821 q 379 775 449 821 q 267 654 308 730 q 225 486 225 578 q 267 318 225 394 q 379 197 309 242 q 535 151 449 151 m 451 1250 l 618 1250 l 688 1088 l 577 1088 l 535 1190 l 492 1088 l 381 1088 l 451 1250 z "},"Ö":{"ha":1069,"x_min":56,"x_max":1014,"o":"m 535 -18 q 349 21 436 -18 q 197 130 263 60 q 93 291 131 199 q 56 486 56 382 q 93 682 56 590 q 197 842 131 773 q 349 951 263 912 q 535 990 436 990 q 721 951 634 990 q 874 842 808 912 q 977 682 940 773 q 1014 486 1014 590 q 977 291 1014 382 q 874 130 940 199 q 721 21 808 60 q 535 -18 634 -18 m 535 151 q 691 197 620 151 q 803 318 761 242 q 844 486 844 394 q 802 654 844 578 q 690 775 760 730 q 535 821 620 821 q 379 775 449 821 q 267 654 308 730 q 225 486 225 578 q 267 318 225 394 q 379 197 309 242 q 535 151 449 151 m 398 1061 q 335 1086 360 1061 q 309 1148 309 1110 q 335 1210 309 1185 q 398 1235 360 1235 q 459 1210 434 1235 q 485 1148 485 1185 q 459 1086 485 1110 q 398 1061 434 1061 m 673 1061 q 610 1086 635 1061 q 584 1148 584 1110 q 610 1210 584 1185 q 673 1235 635 1235 q 735 1210 709 1235 q 760 1148 760 1185 q 735 1086 760 1110 q 673 1061 709 1061 z "},"Ò":{"ha":1069,"x_min":56,"x_max":1014,"o":"m 535 -18 q 349 21 436 -18 q 197 130 263 60 q 93 291 131 199 q 56 486 56 382 q 93 682 56 590 q 197 842 131 773 q 349 951 263 912 q 535 990 436 990 q 721 951 634 990 q 874 842 808 912 q 977 682 940 773 q 1014 486 1014 590 q 977 291 1014 382 q 874 130 940 199 q 721 21 808 60 q 535 -18 634 -18 m 535 151 q 691 197 620 151 q 803 318 761 242 q 844 486 844 394 q 802 654 844 578 q 690 775 760 730 q 535 821 620 821 q 379 775 449 821 q 267 654 308 730 q 225 486 225 578 q 267 318 225 394 q 379 197 309 242 q 535 151 449 151 m 353 1268 l 523 1268 l 578 1068 l 490 1068 l 353 1268 z "},"Ø":{"ha":1069,"x_min":56,"x_max":1014,"o":"m 310 -75 l 163 10 l 219 109 q 100 276 145 178 q 56 486 56 374 q 93 682 56 590 q 197 842 131 773 q 349 951 263 912 q 535 990 436 990 q 625 981 581 990 q 708 956 668 972 l 761 1047 l 908 963 l 851 864 q 970 697 926 794 q 1014 486 1014 599 q 977 291 1014 382 q 874 130 940 199 q 721 21 808 60 q 535 -18 634 -18 q 446 -9 489 -18 q 363 18 403 1 l 310 -75 m 310 265 l 622 804 q 535 821 580 821 q 379 775 449 821 q 267 654 308 730 q 225 486 225 578 q 248 365 225 422 q 310 265 271 308 m 535 151 q 691 197 620 151 q 803 318 761 242 q 844 486 844 394 q 822 608 844 551 q 761 708 800 665 l 449 169 q 535 151 490 151 z "},"Õ":{"ha":1069,"x_min":56,"x_max":1014,"o":"m 535 -18 q 349 21 436 -18 q 197 130 263 60 q 93 291 131 199 q 56 486 56 382 q 93 682 56 590 q 197 842 131 773 q 349 951 263 912 q 535 990 436 990 q 721 951 634 990 q 874 842 808 912 q 977 682 940 773 q 1014 486 1014 590 q 977 291 1014 382 q 874 130 940 199 q 721 21 808 60 q 535 -18 634 -18 m 535 151 q 691 197 620 151 q 803 318 761 242 q 844 486 844 394 q 802 654 844 578 q 690 775 760 730 q 535 821 620 821 q 379 775 449 821 q 267 654 308 730 q 225 486 225 578 q 267 318 225 394 q 379 197 309 242 q 535 151 449 151 m 642 1044 q 582 1062 617 1044 q 512 1102 547 1080 q 451 1138 477 1124 q 415 1142 424 1151 q 409 1081 397 1122 l 310 1054 q 300 1153 291 1108 q 342 1224 310 1197 q 426 1251 374 1251 q 484 1236 451 1251 q 551 1201 517 1221 q 610 1166 584 1181 q 647 1151 635 1151 q 667 1172 667 1151 q 660 1211 667 1192 l 760 1244 q 768 1142 779 1187 q 725 1070 758 1097 q 642 1044 692 1044 z "},"Œ":{"ha":1474,"x_min":56,"x_max":1404,"o":"m 535 -18 q 349 21 436 -18 q 197 130 263 60 q 93 291 131 199 q 56 486 56 382 q 93 682 56 590 q 197 842 131 773 q 349 951 263 912 q 535 990 436 990 q 708 952 627 990 q 847 851 789 915 l 847 972 l 1404 972 l 1404 803 l 1016 803 l 1016 571 l 1338 571 l 1338 401 l 1016 401 l 1016 169 l 1404 169 l 1404 0 l 847 0 l 847 121 q 708 20 789 58 q 535 -18 627 -18 m 535 151 q 691 197 620 151 q 803 318 761 242 q 844 486 844 394 q 802 654 844 578 q 690 775 760 730 q 535 821 620 821 q 379 775 449 821 q 267 654 308 730 q 225 486 225 578 q 267 318 225 394 q 379 197 309 242 q 535 151 449 151 z "},"P":{"ha":769,"x_min":83,"x_max":713,"o":"m 83 0 l 83 972 l 431 972 q 574 933 510 972 q 676 826 638 893 q 713 680 713 760 q 674 532 713 598 q 571 426 635 465 q 431 387 507 387 l 253 387 l 253 0 l 83 0 m 253 556 l 413 556 q 505 595 467 556 q 544 691 544 635 q 505 787 544 748 q 413 826 467 826 l 253 826 l 253 556 z "},"Þ":{"ha":769,"x_min":83,"x_max":713,"o":"m 83 0 l 83 972 l 253 972 l 253 778 l 431 778 q 574 739 510 778 q 676 633 638 699 q 713 486 713 566 q 674 339 713 405 q 571 233 635 272 q 431 194 507 194 l 253 194 l 253 0 l 83 0 m 253 363 l 413 363 q 505 402 467 363 q 544 498 544 441 q 505 593 544 554 q 413 633 467 633 l 253 633 l 253 363 z "},"Q":{"ha":1092,"x_min":56,"x_max":1036,"o":"m 917 -29 l 808 78 q 681 10 751 35 q 535 -14 612 -14 q 349 25 435 -14 q 196 134 262 65 q 93 294 130 203 q 56 490 56 386 q 93 686 56 594 q 196 847 130 777 q 349 955 262 916 q 535 994 435 994 q 720 955 634 994 q 873 847 807 916 q 976 686 939 777 q 1014 490 1014 594 q 990 336 1014 409 q 926 201 967 263 l 1036 90 l 917 -29 m 535 156 q 685 202 617 156 l 597 290 l 717 410 l 799 327 q 844 490 844 401 q 802 659 844 583 q 690 780 760 735 q 535 825 619 825 q 379 780 449 825 q 267 658 308 734 q 225 490 225 582 q 267 322 225 398 q 380 201 309 246 q 535 156 450 156 z "},"R":{"ha":847,"x_min":88,"x_max":787,"o":"m 88 0 l 88 972 l 461 972 q 604 933 540 972 q 706 827 668 893 q 743 680 743 760 q 691 507 743 581 q 554 402 638 433 l 787 0 l 592 0 l 367 387 l 258 387 l 258 0 l 88 0 m 258 556 l 442 556 q 535 595 496 556 q 574 691 574 635 q 535 787 574 748 q 442 826 496 826 l 258 826 l 258 556 z "},"S":{"ha":867,"x_min":69,"x_max":798,"o":"m 433 -18 q 278 7 353 -18 q 149 80 204 33 q 69 194 94 128 l 228 253 q 301 181 243 211 q 433 151 360 151 q 527 167 483 151 q 599 211 572 183 q 626 276 626 239 q 598 339 626 315 q 525 378 569 364 q 433 401 481 393 q 248 450 330 417 q 118 542 166 483 q 71 695 71 601 q 122 850 71 783 q 255 952 172 916 q 433 989 338 989 q 588 964 513 989 q 718 891 662 938 q 798 776 774 843 l 638 718 q 565 790 623 760 q 433 819 508 819 q 340 803 384 819 q 268 759 296 788 q 240 695 240 731 q 266 625 240 649 q 336 590 292 601 q 433 571 380 579 q 613 519 531 556 q 746 423 696 483 q 796 276 796 363 q 746 122 796 188 q 613 19 696 56 q 433 -18 531 -18 z "},"ẞ":{"ha":837,"x_min":83,"x_max":795,"o":"m 83 0 l 83 624 q 131 799 83 719 q 257 925 178 878 q 431 972 335 972 q 565 943 502 972 q 666 866 627 915 q 706 756 706 817 q 687 692 706 723 q 631 618 668 661 q 540 508 594 575 q 634 500 588 516 q 716 450 679 483 q 774 373 752 417 q 795 283 795 330 q 767 162 795 215 q 691 73 738 109 q 586 18 644 37 q 470 0 528 0 l 430 0 l 394 145 l 453 145 q 539 158 494 145 q 613 202 583 172 q 644 285 644 233 q 613 367 644 336 q 539 410 583 397 q 453 424 494 424 l 399 424 l 398 488 q 418 563 398 522 q 466 643 439 603 q 514 714 493 683 q 534 758 534 744 q 494 815 534 803 q 401 826 453 826 q 329 805 363 826 q 274 747 295 783 q 253 667 253 711 l 253 0 l 83 0 z "},"T":{"ha":875,"x_min":56,"x_max":819,"o":"m 819 972 l 819 803 l 522 803 l 522 0 l 353 0 l 353 803 l 56 803 l 56 972 l 819 972 z "},"U":{"ha":944,"x_min":83,"x_max":861,"o":"m 473 -18 q 268 39 356 -18 q 132 192 181 96 q 83 406 83 288 l 83 972 l 253 972 l 253 406 q 278 278 253 336 q 353 186 304 220 q 473 151 403 151 q 592 186 543 151 q 666 278 641 220 q 692 406 692 335 l 692 972 l 861 972 l 861 406 q 813 192 861 288 q 677 39 764 96 q 473 -18 590 -18 z "},"Ú":{"ha":944,"x_min":83,"x_max":861,"o":"m 473 -18 q 268 39 356 -18 q 132 192 181 96 q 83 406 83 288 l 83 972 l 253 972 l 253 406 q 278 278 253 336 q 353 186 304 220 q 473 151 403 151 q 592 186 543 151 q 666 278 641 220 q 692 406 692 335 l 692 972 l 861 972 l 861 406 q 813 192 861 288 q 677 39 764 96 q 473 -18 590 -18 m 445 1068 l 501 1268 l 670 1268 l 533 1068 l 445 1068 z "},"Û":{"ha":944,"x_min":83,"x_max":861,"o":"m 473 -18 q 268 39 356 -18 q 132 192 181 96 q 83 406 83 288 l 83 972 l 253 972 l 253 406 q 278 278 253 336 q 353 186 304 220 q 473 151 403 151 q 592 186 543 151 q 666 278 641 220 q 692 406 692 335 l 692 972 l 861 972 l 861 406 q 813 192 861 288 q 677 39 764 96 q 473 -18 590 -18 m 388 1250 l 556 1250 l 625 1088 l 515 1088 l 473 1190 l 429 1088 l 319 1088 l 388 1250 z "},"Ü":{"ha":944,"x_min":83,"x_max":861,"o":"m 473 -18 q 268 39 356 -18 q 132 192 181 96 q 83 406 83 288 l 83 972 l 253 972 l 253 406 q 278 278 253 336 q 353 186 304 220 q 473 151 403 151 q 592 186 543 151 q 666 278 641 220 q 692 406 692 335 l 692 972 l 861 972 l 861 406 q 813 192 861 288 q 677 39 764 96 q 473 -18 590 -18 m 335 1061 q 272 1086 298 1061 q 247 1148 247 1110 q 272 1210 247 1185 q 335 1235 298 1235 q 397 1210 372 1235 q 422 1148 422 1185 q 397 1086 422 1110 q 335 1061 372 1061 m 610 1061 q 547 1086 573 1061 q 522 1148 522 1110 q 547 1210 522 1185 q 610 1235 573 1235 q 672 1210 647 1235 q 698 1148 698 1185 q 672 1086 698 1110 q 610 1061 647 1061 z "},"Ù":{"ha":944,"x_min":83,"x_max":861,"o":"m 473 -18 q 268 39 356 -18 q 132 192 181 96 q 83 406 83 288 l 83 972 l 253 972 l 253 406 q 278 278 253 336 q 353 186 304 220 q 473 151 403 151 q 592 186 543 151 q 666 278 641 220 q 692 406 692 335 l 692 972 l 861 972 l 861 406 q 813 192 861 288 q 677 39 764 96 q 473 -18 590 -18 m 291 1268 l 460 1268 l 516 1068 l 428 1068 l 291 1268 z "},"V":{"ha":950,"x_min":14,"x_max":936,"o":"m 367 0 l 14 972 l 194 972 l 475 198 l 756 972 l 936 972 l 583 0 l 367 0 z "},"W":{"ha":1321,"x_min":69,"x_max":1251,"o":"m 318 0 l 69 972 l 244 972 l 414 308 l 583 972 l 738 972 l 907 308 l 1076 972 l 1251 972 l 1004 0 l 811 0 l 660 589 l 510 0 l 318 0 z "},"Ẃ":{"ha":1321,"x_min":69,"x_max":1251,"o":"m 318 0 l 69 972 l 244 972 l 414 308 l 583 972 l 738 972 l 907 308 l 1076 972 l 1251 972 l 1004 0 l 811 0 l 660 589 l 510 0 l 318 0 m 633 1068 l 689 1268 l 858 1268 l 722 1068 l 633 1068 z "},"Ŵ":{"ha":1321,"x_min":69,"x_max":1251,"o":"m 318 0 l 69 972 l 244 972 l 414 308 l 583 972 l 738 972 l 907 308 l 1076 972 l 1251 972 l 1004 0 l 811 0 l 660 589 l 510 0 l 318 0 m 576 1250 l 744 1250 l 813 1088 l 703 1088 l 661 1190 l 617 1088 l 507 1088 l 576 1250 z "},"Ẅ":{"ha":1321,"x_min":69,"x_max":1251,"o":"m 318 0 l 69 972 l 244 972 l 414 308 l 583 972 l 738 972 l 907 308 l 1076 972 l 1251 972 l 1004 0 l 811 0 l 660 589 l 510 0 l 318 0 m 524 1061 q 460 1086 486 1061 q 435 1148 435 1110 q 460 1210 435 1185 q 524 1235 486 1235 q 585 1210 560 1235 q 610 1148 610 1185 q 585 1086 610 1110 q 524 1061 560 1061 m 799 1061 q 735 1086 761 1061 q 710 1148 710 1110 q 735 1210 710 1185 q 799 1235 761 1235 q 860 1210 835 1235 q 886 1148 886 1185 q 860 1086 886 1110 q 799 1061 835 1061 z "},"Ẁ":{"ha":1321,"x_min":69,"x_max":1251,"o":"m 318 0 l 69 972 l 244 972 l 414 308 l 583 972 l 738 972 l 907 308 l 1076 972 l 1251 972 l 1004 0 l 811 0 l 660 589 l 510 0 l 318 0 m 479 1268 l 649 1268 l 704 1068 l 616 1068 l 479 1268 z "},"X":{"ha":1005,"x_min":42,"x_max":963,"o":"m 42 0 l 397 489 l 46 972 l 255 972 l 502 632 l 750 972 l 959 972 l 608 489 l 963 0 l 753 0 l 502 344 l 252 0 l 42 0 z "},"Y":{"ha":921,"x_min":42,"x_max":879,"o":"m 679 972 l 879 972 l 545 438 l 545 0 l 376 0 l 376 438 l 42 972 l 242 972 l 460 623 l 679 972 z "},"Ý":{"ha":921,"x_min":42,"x_max":879,"o":"m 679 972 l 879 972 l 545 438 l 545 0 l 376 0 l 376 438 l 42 972 l 242 972 l 460 623 l 679 972 m 433 1068 l 489 1268 l 658 1268 l 522 1068 l 433 1068 z "},"Ŷ":{"ha":921,"x_min":42,"x_max":879,"o":"m 679 972 l 879 972 l 545 438 l 545 0 l 376 0 l 376 438 l 42 972 l 242 972 l 460 623 l 679 972 m 376 1250 l 544 1250 l 613 1088 l 503 1088 l 461 1190 l 417 1088 l 307 1088 l 376 1250 z "},"Ÿ":{"ha":921,"x_min":42,"x_max":879,"o":"m 679 972 l 879 972 l 545 438 l 545 0 l 376 0 l 376 438 l 42 972 l 242 972 l 460 623 l 679 972 m 324 1061 q 260 1086 286 1061 q 235 1148 235 1110 q 260 1210 235 1185 q 324 1235 286 1235 q 385 1210 360 1235 q 410 1148 410 1185 q 385 1086 410 1110 q 324 1061 360 1061 m 599 1061 q 535 1086 561 1061 q 510 1148 510 1110 q 535 1210 510 1185 q 599 1235 561 1235 q 660 1210 635 1235 q 686 1148 686 1185 q 660 1086 686 1110 q 599 1061 635 1061 z "},"Ỳ":{"ha":921,"x_min":42,"x_max":879,"o":"m 679 972 l 879 972 l 545 438 l 545 0 l 376 0 l 376 438 l 42 972 l 242 972 l 460 623 l 679 972 m 279 1268 l 449 1268 l 504 1068 l 416 1068 l 279 1268 z "},"Z":{"ha":953,"x_min":83,"x_max":869,"o":"m 83 0 l 83 169 l 641 803 l 83 803 l 83 972 l 869 972 l 869 803 l 312 169 l 869 169 l 869 0 l 83 0 z "},"a":{"ha":868,"x_min":49,"x_max":785,"o":"m 615 694 l 785 694 l 785 0 l 615 0 l 608 86 q 532 10 578 39 q 422 -18 485 -18 q 277 11 344 -18 q 158 91 209 40 q 78 210 107 142 q 50 355 49 278 q 97 535 49 454 q 226 665 145 617 q 406 714 308 714 q 530 683 476 714 q 623 606 585 653 l 615 694 m 426 145 q 523 174 482 145 q 585 250 564 202 q 602 355 606 297 q 570 453 597 409 q 500 524 543 497 q 406 550 458 550 q 307 522 351 550 q 240 445 264 493 q 222 340 217 398 q 256 242 226 286 q 330 172 285 198 q 426 145 375 145 z "},"á":{"ha":868,"x_min":49,"x_max":785,"o":"m 615 694 l 785 694 l 785 0 l 615 0 l 608 86 q 532 10 578 39 q 422 -18 485 -18 q 277 11 344 -18 q 158 91 209 40 q 78 210 107 142 q 50 355 49 278 q 97 535 49 454 q 226 665 145 617 q 406 714 308 714 q 530 683 476 714 q 623 606 585 653 l 615 694 m 426 145 q 523 174 482 145 q 585 250 564 202 q 602 355 606 297 q 570 453 597 409 q 500 524 543 497 q 406 550 458 550 q 307 522 351 550 q 240 445 264 493 q 222 340 217 398 q 256 242 226 286 q 330 172 285 198 q 426 145 375 145 m 407 790 l 463 990 l 632 990 l 495 790 l 407 790 z "},"â":{"ha":868,"x_min":49,"x_max":785,"o":"m 615 694 l 785 694 l 785 0 l 615 0 l 608 86 q 532 10 578 39 q 422 -18 485 -18 q 277 11 344 -18 q 158 91 209 40 q 78 210 107 142 q 50 355 49 278 q 97 535 49 454 q 226 665 145 617 q 406 714 308 714 q 530 683 476 714 q 623 606 585 653 l 615 694 m 426 145 q 523 174 482 145 q 585 250 564 202 q 602 355 606 297 q 570 453 597 409 q 500 524 543 497 q 406 550 458 550 q 307 522 351 550 q 240 445 264 493 q 222 340 217 398 q 256 242 226 286 q 330 172 285 198 q 426 145 375 145 m 350 972 l 517 972 l 587 810 l 476 810 l 435 913 l 391 810 l 281 810 l 350 972 z "},"ä":{"ha":868,"x_min":49,"x_max":785,"o":"m 615 694 l 785 694 l 785 0 l 615 0 l 608 86 q 532 10 578 39 q 422 -18 485 -18 q 277 11 344 -18 q 158 91 209 40 q 78 210 107 142 q 50 355 49 278 q 97 535 49 454 q 226 665 145 617 q 406 714 308 714 q 530 683 476 714 q 623 606 585 653 l 615 694 m 426 145 q 523 174 482 145 q 585 250 564 202 q 602 355 606 297 q 570 453 597 409 q 500 524 543 497 q 406 550 458 550 q 307 522 351 550 q 240 445 264 493 q 222 340 217 398 q 256 242 226 286 q 330 172 285 198 q 426 145 375 145 m 297 783 q 234 808 260 783 q 208 870 208 833 q 234 932 208 907 q 297 958 260 958 q 359 932 333 958 q 384 870 384 907 q 359 808 384 833 q 297 783 333 783 m 572 783 q 509 808 535 783 q 483 870 483 833 q 509 932 483 907 q 572 958 535 958 q 634 932 608 958 q 660 870 660 907 q 634 808 660 833 q 572 783 608 783 z "},"à":{"ha":868,"x_min":49,"x_max":785,"o":"m 615 694 l 785 694 l 785 0 l 615 0 l 608 86 q 532 10 578 39 q 422 -18 485 -18 q 277 11 344 -18 q 158 91 209 40 q 78 210 107 142 q 50 355 49 278 q 97 535 49 454 q 226 665 145 617 q 406 714 308 714 q 530 683 476 714 q 623 606 585 653 l 615 694 m 426 145 q 523 174 482 145 q 585 250 564 202 q 602 355 606 297 q 570 453 597 409 q 500 524 543 497 q 406 550 458 550 q 307 522 351 550 q 240 445 264 493 q 222 340 217 398 q 256 242 226 286 q 330 172 285 198 q 426 145 375 145 m 253 990 l 422 990 l 478 790 l 390 790 l 253 990 z "},"å":{"ha":868,"x_min":49,"x_max":785,"o":"m 615 694 l 785 694 l 785 0 l 615 0 l 608 86 q 532 10 578 39 q 422 -18 485 -18 q 277 11 344 -18 q 158 91 209 40 q 78 210 107 142 q 50 355 49 278 q 97 535 49 454 q 226 665 145 617 q 406 714 308 714 q 530 683 476 714 q 623 606 585 653 l 615 694 m 426 145 q 523 174 482 145 q 585 250 564 202 q 602 355 606 297 q 570 453 597 409 q 500 524 543 497 q 406 550 458 550 q 307 522 351 550 q 240 445 264 493 q 222 340 217 398 q 256 242 226 286 q 330 172 285 198 q 426 145 375 145 m 434 755 q 343 793 381 755 q 305 885 305 832 q 343 975 305 937 q 434 1013 381 1013 q 525 975 487 1013 q 563 885 563 937 q 525 793 563 831 q 434 755 487 755 m 434 821 q 478 839 460 821 q 497 885 497 858 q 478 928 497 910 q 434 946 460 946 q 390 928 408 946 q 372 885 372 910 q 390 839 372 858 q 434 821 408 821 z "},"ã":{"ha":868,"x_min":49,"x_max":785,"o":"m 615 694 l 785 694 l 785 0 l 615 0 l 608 86 q 532 10 578 39 q 422 -18 485 -18 q 277 11 344 -18 q 158 91 209 40 q 78 210 107 142 q 50 355 49 278 q 97 535 49 454 q 226 665 145 617 q 406 714 308 714 q 530 683 476 714 q 623 606 585 653 l 615 694 m 426 145 q 523 174 482 145 q 585 250 564 202 q 602 355 606 297 q 570 453 597 409 q 500 524 543 497 q 406 550 458 550 q 307 522 351 550 q 240 445 264 493 q 222 340 217 398 q 256 242 226 286 q 330 172 285 198 q 426 145 375 145 m 542 766 q 481 784 516 766 q 411 824 446 802 q 350 860 376 847 q 315 864 324 874 q 308 803 297 844 l 209 776 q 200 875 190 831 q 241 946 209 919 q 325 973 274 973 q 384 958 351 973 q 450 923 417 943 q 509 889 483 903 q 546 874 535 874 q 566 894 567 874 q 559 933 566 914 l 660 966 q 668 864 678 909 q 624 792 657 819 q 542 766 591 766 z "},"æ":{"ha":1277,"x_min":54,"x_max":1241,"o":"m 343 -14 q 131 52 208 -14 q 54 235 54 117 q 114 372 55 322 q 260 422 174 422 l 543 422 q 498 524 535 485 q 380 564 460 564 q 281 547 312 564 q 235 504 249 529 l 89 590 q 211 695 136 672 q 380 718 285 718 q 538 687 474 718 q 641 600 602 656 q 750 686 685 654 q 888 718 814 718 q 1036 684 969 718 q 1151 591 1104 650 q 1220 455 1199 531 q 1230 294 1241 378 l 723 294 q 780 196 737 235 q 888 156 823 156 q 969 177 932 156 q 1029 237 1006 199 l 1202 196 q 1076 44 1160 103 q 888 -14 992 -14 q 751 17 815 -14 q 642 100 687 48 q 553 16 604 45 q 428 -14 502 -14 l 343 -14 m 717 422 l 1058 422 q 999 527 1046 484 q 888 570 951 570 q 777 527 825 570 q 717 422 730 485 m 377 92 q 469 117 434 92 q 521 179 505 143 q 538 245 538 215 l 538 294 l 351 294 q 257 280 294 294 q 218 217 219 266 q 263 123 219 153 q 377 92 307 92 z "},"b":{"ha":861,"x_min":83,"x_max":819,"o":"m 453 714 q 638 665 554 714 q 770 532 721 615 q 819 349 819 449 q 770 164 819 247 q 638 31 721 81 q 453 -18 554 -18 q 336 11 387 -18 q 253 88 286 41 l 253 0 l 83 0 l 83 1042 l 253 1042 l 253 608 q 336 684 286 655 q 453 714 387 714 m 451 146 q 549 173 505 146 q 619 247 593 201 q 646 349 646 292 q 619 450 646 404 q 549 524 593 497 q 451 551 504 551 q 356 523 398 551 q 291 450 315 496 q 267 349 267 403 q 291 247 267 292 q 356 173 315 201 q 451 146 398 146 z "},"c":{"ha":708,"x_min":42,"x_max":667,"o":"m 514 209 l 667 126 q 547 22 619 61 q 389 -18 474 -18 q 214 31 293 -18 q 89 164 135 81 q 42 347 42 247 q 89 532 42 449 q 214 665 135 615 q 389 714 293 714 q 547 674 474 714 q 667 568 619 635 l 514 486 q 389 544 463 544 q 298 517 338 544 q 235 445 258 490 q 211 347 211 400 q 235 250 211 295 q 299 178 258 206 q 389 151 339 151 q 458 167 425 151 q 514 209 490 183 z "},"ć":{"ha":708,"x_min":42,"x_max":667,"o":"m 514 209 l 667 126 q 547 22 619 61 q 389 -18 474 -18 q 214 31 293 -18 q 89 164 135 81 q 42 347 42 247 q 89 532 42 449 q 214 665 135 615 q 389 714 293 714 q 547 674 474 714 q 667 568 619 635 l 514 486 q 389 544 463 544 q 298 517 338 544 q 235 445 258 490 q 211 347 211 400 q 235 250 211 295 q 299 178 258 206 q 389 151 339 151 q 458 167 425 151 q 514 209 490 183 m 327 790 l 383 990 l 552 990 l 415 790 l 327 790 z "},"ç":{"ha":708,"x_min":42,"x_max":667,"o":"m 514 209 l 667 126 q 547 22 619 61 q 389 -18 474 -18 q 214 31 293 -18 q 89 164 135 81 q 42 347 42 247 q 89 532 42 449 q 214 665 135 615 q 389 714 293 714 q 547 674 474 714 q 667 568 619 635 l 514 486 q 389 544 463 544 q 298 517 338 544 q 235 445 258 490 q 211 347 211 400 q 235 250 211 295 q 299 178 258 206 q 389 151 339 151 q 458 167 425 151 q 514 209 490 183 m 188 -218 l 188 -92 l 261 -92 q 326 -73 295 -92 q 375 -24 356 -54 q 394 40 394 7 l 394 113 l 520 113 l 520 42 q 485 -89 520 -30 q 391 -183 450 -148 q 259 -218 331 -218 l 188 -218 z "},"d":{"ha":856,"x_min":42,"x_max":778,"o":"m 608 1042 l 778 1042 l 778 0 l 608 0 l 608 87 q 524 11 575 40 q 407 -18 474 -18 q 265 10 331 -18 q 149 89 199 39 q 70 206 99 140 q 42 347 42 272 q 70 489 42 423 q 149 606 99 556 q 265 684 199 656 q 407 713 331 713 q 524 684 474 713 q 608 608 575 655 l 608 1042 m 409 145 q 505 172 463 145 q 570 245 547 199 q 594 347 594 291 q 570 449 594 403 q 504 523 546 495 q 409 550 463 550 q 312 523 356 550 q 242 449 268 495 q 215 347 215 403 q 242 245 215 291 q 312 172 268 199 q 409 145 356 145 z "},"ð":{"ha":782,"x_min":56,"x_max":754,"o":"m 406 -18 q 230 29 309 -18 q 103 156 150 76 q 56 331 56 235 q 103 507 56 427 q 230 633 150 586 q 406 681 309 681 q 516 639 470 681 q 475 735 500 686 q 412 822 451 785 l 303 715 l 221 798 l 306 882 q 240 890 275 890 l 238 1060 q 342 1047 292 1060 q 436 1010 392 1033 l 526 1097 l 607 1015 l 531 941 q 651 785 601 876 q 727 584 701 693 q 754 357 753 475 q 709 163 754 247 q 585 30 664 78 q 406 -18 507 -18 m 406 151 q 495 176 455 151 q 560 241 536 201 q 585 331 585 282 q 560 421 585 380 q 495 486 536 462 q 406 511 455 511 q 315 486 356 511 q 249 421 274 462 q 225 331 225 380 q 249 241 225 282 q 315 176 274 200 q 406 151 356 151 z "},"e":{"ha":778,"x_min":42,"x_max":742,"o":"m 389 -18 q 214 31 293 -18 q 89 164 135 81 q 42 348 42 247 q 89 532 42 449 q 214 665 135 615 q 389 714 293 714 q 538 680 470 714 q 652 586 605 645 q 721 450 700 526 q 731 290 742 374 l 224 290 q 281 192 238 231 q 389 151 324 152 q 469 173 433 151 q 531 232 506 194 l 703 192 q 577 41 661 99 q 389 -18 493 -18 m 218 417 l 560 417 q 500 523 547 479 q 389 566 452 566 q 279 523 326 566 q 218 417 232 480 z "},"é":{"ha":778,"x_min":42,"x_max":742,"o":"m 389 -18 q 214 31 293 -18 q 89 164 135 81 q 42 348 42 247 q 89 532 42 449 q 214 665 135 615 q 389 714 293 714 q 538 680 470 714 q 652 586 605 645 q 721 450 700 526 q 731 290 742 374 l 224 290 q 281 192 238 231 q 389 151 324 152 q 469 173 433 151 q 531 232 506 194 l 703 192 q 577 41 661 99 q 389 -18 493 -18 m 218 417 l 560 417 q 500 523 547 479 q 389 566 452 566 q 279 523 326 566 q 218 417 232 480 m 362 790 l 417 990 l 587 990 l 450 790 l 362 790 z "},"ê":{"ha":778,"x_min":42,"x_max":742,"o":"m 389 -18 q 214 31 293 -18 q 89 164 135 81 q 42 348 42 247 q 89 532 42 449 q 214 665 135 615 q 389 714 293 714 q 538 680 470 714 q 652 586 605 645 q 721 450 700 526 q 731 290 742 374 l 224 290 q 281 192 238 231 q 389 151 324 152 q 469 173 433 151 q 531 232 506 194 l 703 192 q 577 41 661 99 q 389 -18 493 -18 m 218 417 l 560 417 q 500 523 547 479 q 389 566 452 566 q 279 523 326 566 q 218 417 232 480 m 305 972 l 472 972 l 542 810 l 431 810 l 390 913 l 346 810 l 235 810 l 305 972 z "},"ë":{"ha":778,"x_min":42,"x_max":742,"o":"m 389 -18 q 214 31 293 -18 q 89 164 135 81 q 42 348 42 247 q 89 532 42 449 q 214 665 135 615 q 389 714 293 714 q 538 680 470 714 q 652 586 605 645 q 721 450 700 526 q 731 290 742 374 l 224 290 q 281 192 238 231 q 389 151 324 152 q 469 173 433 151 q 531 232 506 194 l 703 192 q 577 41 661 99 q 389 -18 493 -18 m 218 417 l 560 417 q 500 523 547 479 q 389 566 452 566 q 279 523 326 566 q 218 417 232 480 m 252 783 q 189 808 215 783 q 163 870 163 833 q 189 932 163 907 q 252 958 215 958 q 314 932 288 958 q 339 870 339 907 q 314 808 339 833 q 252 783 288 783 m 527 783 q 464 808 490 783 q 438 870 438 833 q 464 932 438 907 q 527 958 490 958 q 589 932 563 958 q 615 870 615 907 q 589 808 615 833 q 527 783 563 783 z "},"è":{"ha":778,"x_min":42,"x_max":742,"o":"m 389 -18 q 214 31 293 -18 q 89 164 135 81 q 42 348 42 247 q 89 532 42 449 q 214 665 135 615 q 389 714 293 714 q 538 680 470 714 q 652 586 605 645 q 721 450 700 526 q 731 290 742 374 l 224 290 q 281 192 238 231 q 389 151 324 152 q 469 173 433 151 q 531 232 506 194 l 703 192 q 577 41 661 99 q 389 -18 493 -18 m 218 417 l 560 417 q 500 523 547 479 q 389 566 452 566 q 279 523 326 566 q 218 417 232 480 m 207 990 l 376 990 l 432 790 l 344 790 l 207 990 z "},"f":{"ha":506,"x_min":35,"x_max":493,"o":"m 280 840 l 280 694 l 469 694 l 469 525 l 280 525 l 280 0 l 110 0 l 110 525 l 35 525 l 35 694 l 110 694 l 110 840 q 140 950 110 900 q 219 1029 169 999 q 330 1058 269 1058 q 416 1040 374 1058 q 493 985 459 1022 l 371 865 q 353 883 365 877 q 330 889 342 889 q 295 875 310 889 q 280 840 280 860 z "},"g":{"ha":851,"x_min":42,"x_max":768,"o":"m 599 694 l 768 694 l 768 -13 q 715 -188 768 -113 q 576 -305 663 -263 q 390 -347 490 -347 q 250 -317 317 -347 q 131 -236 183 -287 q 52 -118 79 -184 l 207 -48 q 280 -141 228 -106 q 390 -176 331 -176 q 491 -157 444 -176 q 569 -101 539 -137 q 599 -13 599 -65 l 599 85 q 517 10 566 39 q 403 -18 467 -18 q 222 31 303 -18 q 91 164 140 81 q 42 347 42 247 q 91 531 42 448 q 222 663 140 614 q 403 713 303 713 q 517 684 467 713 q 599 610 566 656 l 599 694 m 405 145 q 500 173 458 145 q 565 246 541 200 q 588 347 588 292 q 564 449 588 403 q 499 523 540 495 q 405 550 458 550 q 309 523 352 550 q 241 449 267 495 q 215 347 215 403 q 241 245 215 291 q 310 172 267 199 q 405 145 353 145 z "},"h":{"ha":795,"x_min":83,"x_max":740,"o":"m 740 358 l 740 0 l 570 0 l 570 356 q 548 453 570 409 q 489 524 526 497 q 407 550 452 550 q 292 493 330 550 q 254 356 254 436 l 254 0 l 83 0 l 83 1042 l 253 1042 l 253 628 q 322 696 278 679 q 424 713 366 713 q 590 664 519 713 q 699 535 660 616 q 740 358 738 455 z "},"i":{"ha":401,"x_min":81,"x_max":256,"o":"m 83 694 l 253 694 l 253 0 l 83 0 l 83 694 m 169 798 q 106 823 131 798 q 81 885 81 847 q 106 947 81 922 q 169 972 131 972 q 231 947 206 972 q 256 885 256 922 q 231 823 256 847 q 169 798 206 798 z "},"ı":{"ha":401,"x_min":83,"x_max":253,"o":"m 83 694 l 253 694 l 253 0 l 83 0 l 83 694 z "},"í":{"ha":401,"x_min":83,"x_max":366,"o":"m 83 694 l 253 694 l 253 0 l 83 0 l 83 694 m 141 790 l 197 990 l 366 990 l 229 790 l 141 790 z "},"î":{"ha":401,"x_min":15,"x_max":321,"o":"m 83 694 l 253 694 l 253 0 l 83 0 l 83 694 m 84 972 l 251 972 l 321 810 l 210 810 l 169 913 l 125 810 l 15 810 l 84 972 z "},"ï":{"ha":401,"x_min":-58,"x_max":394,"o":"m 83 694 l 253 694 l 253 0 l 83 0 l 83 694 m 31 783 q -32 808 -6 783 q -58 870 -58 833 q -32 932 -58 907 q 31 958 -6 958 q 93 932 67 958 q 118 870 118 907 q 93 808 118 833 q 31 783 67 783 m 306 783 q 243 808 269 783 q 217 870 217 833 q 243 932 217 907 q 306 958 269 958 q 368 932 342 958 q 394 870 394 907 q 368 808 394 833 q 306 783 342 783 z "},"ì":{"ha":401,"x_min":-13,"x_max":253,"o":"m 83 694 l 253 694 l 253 0 l 83 0 l 83 694 m -13 990 l 156 990 l 212 790 l 124 790 l -13 990 z "},"j":{"ha":362,"x_min":-56,"x_max":258,"o":"m 170 780 q 109 806 134 780 q 83 867 83 831 q 109 929 83 903 q 170 954 134 954 q 232 929 206 954 q 258 867 258 903 q 232 806 258 831 q 170 780 206 780 m -56 -347 l -56 -178 q 44 -137 3 -178 q 85 -39 85 -97 l 85 694 l 255 694 l 255 -39 q 214 -194 255 -124 q 102 -306 172 -264 q -56 -347 31 -347 z "},"k":{"ha":748,"x_min":88,"x_max":709,"o":"m 708 0 l 513 0 l 355 273 l 258 157 l 258 0 l 88 0 l 88 1042 l 258 1042 l 258 420 l 488 694 l 709 694 l 471 410 l 708 0 z "},"l":{"ha":346,"x_min":88,"x_max":258,"o":"m 88 0 l 88 1042 l 258 1042 l 258 0 l 88 0 z "},"m":{"ha":1203,"x_min":59,"x_max":1145,"o":"m 59 0 l 59 694 l 228 694 l 228 624 q 293 680 259 658 q 372 701 328 701 q 501 671 442 701 q 602 588 560 641 q 703 671 644 642 q 833 701 763 701 q 993 656 922 701 q 1104 537 1063 611 q 1145 372 1145 463 l 1145 0 l 976 0 l 976 372 q 936 485 976 438 q 833 531 896 531 q 728 485 769 531 q 687 372 687 438 l 687 0 l 517 0 l 517 372 q 476 485 517 438 q 372 531 434 531 q 269 483 310 531 q 228 369 228 435 l 228 0 l 59 0 z "},"n":{"ha":815,"x_min":69,"x_max":746,"o":"m 746 359 l 746 0 l 576 0 l 576 356 q 554 454 576 410 q 493 524 532 498 q 402 551 453 551 q 283 493 326 551 q 239 356 239 436 l 239 0 l 69 0 l 69 694 l 239 694 l 239 613 q 322 686 274 659 q 431 714 370 714 q 598 666 527 714 q 707 537 668 617 q 746 359 745 456 z "},"ñ":{"ha":815,"x_min":69,"x_max":746,"o":"m 746 359 l 746 0 l 576 0 l 576 356 q 554 454 576 410 q 493 524 532 498 q 402 551 453 551 q 283 493 326 551 q 239 356 239 436 l 239 0 l 69 0 l 69 694 l 239 694 l 239 613 q 322 686 274 659 q 431 714 370 714 q 598 666 527 714 q 707 537 668 617 q 746 359 745 456 m 516 766 q 455 784 490 766 q 385 824 420 802 q 324 860 351 847 q 289 864 298 874 q 283 803 271 844 l 183 776 q 174 875 165 831 q 216 946 183 919 q 299 973 248 973 q 358 958 325 973 q 424 923 391 943 q 483 889 458 903 q 520 874 509 874 q 541 894 541 874 q 533 933 540 914 l 634 966 q 642 864 653 909 q 598 792 631 819 q 516 766 565 766 z "},"o":{"ha":778,"x_min":42,"x_max":736,"o":"m 389 -18 q 214 31 293 -18 q 89 164 135 81 q 42 347 42 247 q 89 532 42 449 q 214 665 135 615 q 389 714 293 714 q 564 665 485 714 q 689 532 642 615 q 736 347 736 449 q 689 164 736 247 q 564 31 642 81 q 389 -18 485 -18 m 389 151 q 480 178 440 151 q 543 250 519 206 q 567 347 567 294 q 543 446 567 401 q 478 518 519 491 q 389 544 438 544 q 299 517 339 544 q 235 445 258 490 q 211 347 211 400 q 235 248 211 292 q 300 177 260 203 q 389 151 341 151 z "},"ó":{"ha":778,"x_min":42,"x_max":736,"o":"m 389 -18 q 214 31 293 -18 q 89 164 135 81 q 42 347 42 247 q 89 532 42 449 q 214 665 135 615 q 389 714 293 714 q 564 665 485 714 q 689 532 642 615 q 736 347 736 449 q 689 164 736 247 q 564 31 642 81 q 389 -18 485 -18 m 389 151 q 480 178 440 151 q 543 250 519 206 q 567 347 567 294 q 543 446 567 401 q 478 518 519 491 q 389 544 438 544 q 299 517 339 544 q 235 445 258 490 q 211 347 211 400 q 235 248 211 292 q 300 177 260 203 q 389 151 341 151 m 362 790 l 417 990 l 587 990 l 450 790 l 362 790 z "},"ô":{"ha":778,"x_min":42,"x_max":736,"o":"m 389 -18 q 214 31 293 -18 q 89 164 135 81 q 42 347 42 247 q 89 532 42 449 q 214 665 135 615 q 389 714 293 714 q 564 665 485 714 q 689 532 642 615 q 736 347 736 449 q 689 164 736 247 q 564 31 642 81 q 389 -18 485 -18 m 389 151 q 480 178 440 151 q 543 250 519 206 q 567 347 567 294 q 543 446 567 401 q 478 518 519 491 q 389 544 438 544 q 299 517 339 544 q 235 445 258 490 q 211 347 211 400 q 235 248 211 292 q 300 177 260 203 q 389 151 341 151 m 305 972 l 472 972 l 542 810 l 431 810 l 390 913 l 346 810 l 235 810 l 305 972 z "},"ö":{"ha":778,"x_min":42,"x_max":736,"o":"m 389 -18 q 214 31 293 -18 q 89 164 135 81 q 42 347 42 247 q 89 532 42 449 q 214 665 135 615 q 389 714 293 714 q 564 665 485 714 q 689 532 642 615 q 736 347 736 449 q 689 164 736 247 q 564 31 642 81 q 389 -18 485 -18 m 389 151 q 480 178 440 151 q 543 250 519 206 q 567 347 567 294 q 543 446 567 401 q 478 518 519 491 q 389 544 438 544 q 299 517 339 544 q 235 445 258 490 q 211 347 211 400 q 235 248 211 292 q 300 177 260 203 q 389 151 341 151 m 252 783 q 189 808 215 783 q 163 870 163 833 q 189 932 163 907 q 252 958 215 958 q 314 932 288 958 q 339 870 339 907 q 314 808 339 833 q 252 783 288 783 m 527 783 q 464 808 490 783 q 438 870 438 833 q 464 932 438 907 q 527 958 490 958 q 589 932 563 958 q 615 870 615 907 q 589 808 615 833 q 527 783 563 783 z "},"ò":{"ha":778,"x_min":42,"x_max":736,"o":"m 389 -18 q 214 31 293 -18 q 89 164 135 81 q 42 347 42 247 q 89 532 42 449 q 214 665 135 615 q 389 714 293 714 q 564 665 485 714 q 689 532 642 615 q 736 347 736 449 q 689 164 736 247 q 564 31 642 81 q 389 -18 485 -18 m 389 151 q 480 178 440 151 q 543 250 519 206 q 567 347 567 294 q 543 446 567 401 q 478 518 519 491 q 389 544 438 544 q 299 517 339 544 q 235 445 258 490 q 211 347 211 400 q 235 248 211 292 q 300 177 260 203 q 389 151 341 151 m 208 990 l 377 990 l 433 790 l 344 790 l 208 990 z "},"ø":{"ha":778,"x_min":42,"x_max":736,"o":"m 238 -52 l 118 17 l 154 79 q 72 199 103 129 q 42 347 42 268 q 89 532 42 449 q 214 665 135 615 q 389 714 293 714 q 507 692 452 714 l 541 749 l 660 680 l 624 617 q 706 497 676 567 q 736 347 736 428 q 689 164 736 247 q 564 31 642 81 q 389 -18 485 -18 q 327 -12 357 -18 q 270 5 297 -6 l 238 -52 m 238 222 l 431 556 q 318 541 371 569 q 232 460 265 514 q 199 338 199 406 q 209 274 199 303 q 238 222 219 245 m 347 140 q 462 155 409 127 q 547 236 515 182 q 579 357 579 290 q 568 421 579 391 q 540 474 558 451 l 347 140 z "},"õ":{"ha":778,"x_min":42,"x_max":736,"o":"m 389 -18 q 214 31 293 -18 q 89 164 135 81 q 42 347 42 247 q 89 532 42 449 q 214 665 135 615 q 389 714 293 714 q 564 665 485 714 q 689 532 642 615 q 736 347 736 449 q 689 164 736 247 q 564 31 642 81 q 389 -18 485 -18 m 389 151 q 480 178 440 151 q 543 250 519 206 q 567 347 567 294 q 543 446 567 401 q 478 518 519 491 q 389 544 438 544 q 299 517 339 544 q 235 445 258 490 q 211 347 211 400 q 235 248 211 292 q 300 177 260 203 q 389 151 341 151 m 497 766 q 436 784 471 766 q 366 824 401 802 q 305 860 331 847 q 269 864 278 874 q 263 803 251 844 l 164 776 q 155 875 145 831 q 196 946 164 919 q 280 973 228 973 q 339 958 306 973 q 405 923 372 943 q 464 889 438 903 q 501 874 490 874 q 521 894 522 874 q 514 933 521 914 l 615 966 q 623 864 633 909 q 579 792 612 819 q 497 766 546 766 z "},"œ":{"ha":1302,"x_min":42,"x_max":1267,"o":"m 389 -18 q 214 31 293 -18 q 89 164 135 81 q 42 347 42 247 q 89 532 42 449 q 214 665 135 615 q 389 714 293 714 q 538 676 469 714 q 651 578 607 639 q 765 676 696 639 q 914 714 833 714 q 1062 680 994 714 q 1177 586 1130 646 q 1245 451 1224 527 q 1256 290 1267 374 l 749 290 q 806 192 763 231 q 914 151 849 152 q 994 173 958 151 q 1055 232 1031 194 l 1228 192 q 1102 41 1186 99 q 914 -18 1018 -18 q 765 19 833 -18 q 651 118 696 56 q 538 19 607 56 q 389 -18 469 -18 m 742 417 l 1084 417 q 1024 523 1072 480 q 914 566 977 566 q 803 523 851 566 q 742 417 756 481 m 389 151 q 480 178 440 151 q 543 250 519 206 q 567 347 567 294 q 543 446 567 401 q 478 518 519 491 q 389 544 438 544 q 299 517 339 544 q 235 445 258 490 q 211 347 211 400 q 235 248 211 292 q 300 177 260 203 q 389 151 341 151 z "},"p":{"ha":874,"x_min":83,"x_max":818,"o":"m 253 -347 l 83 -347 l 83 694 l 253 694 l 253 606 q 336 683 286 653 q 453 713 386 713 q 637 663 554 713 q 769 531 720 614 q 818 347 818 448 q 769 163 818 246 q 637 30 720 79 q 453 -19 554 -19 q 336 10 386 -19 q 253 87 286 40 l 253 -347 m 451 549 q 356 522 398 549 q 291 449 315 494 q 267 347 267 403 q 291 245 267 291 q 356 172 315 199 q 451 144 398 144 q 549 172 504 144 q 619 245 593 199 q 646 347 646 291 q 619 449 646 403 q 549 522 593 494 q 451 549 505 549 z "},"þ":{"ha":874,"x_min":83,"x_max":818,"o":"m 83 -347 l 83 972 l 253 972 l 253 606 q 336 683 286 653 q 453 713 386 713 q 637 663 554 713 q 769 531 720 614 q 818 347 818 448 q 769 163 818 246 q 637 30 720 79 q 453 -19 554 -19 q 336 10 386 -19 q 253 87 286 40 l 253 -347 l 83 -347 m 451 144 q 549 172 504 144 q 619 245 593 199 q 646 347 646 291 q 619 449 646 403 q 549 522 593 494 q 451 549 505 549 q 356 522 398 549 q 291 449 315 494 q 267 347 267 403 q 291 245 267 291 q 356 172 315 199 q 451 144 398 144 z "},"q":{"ha":874,"x_min":56,"x_max":790,"o":"m 421 -19 q 237 30 320 -19 q 105 163 154 79 q 56 347 56 246 q 84 489 56 423 q 163 605 113 555 q 279 684 213 656 q 421 713 345 713 q 538 683 488 713 q 621 606 588 653 l 621 694 l 790 694 l 790 -347 l 621 -347 l 621 87 q 538 10 588 40 q 421 -19 488 -19 m 423 549 q 325 522 369 549 q 255 449 281 494 q 229 347 229 403 q 256 245 229 291 q 326 172 282 199 q 423 144 369 144 q 518 172 477 144 q 583 245 560 199 q 607 347 607 291 q 583 449 607 403 q 518 522 560 494 q 423 549 476 549 z "},"r":{"ha":553,"x_min":83,"x_max":533,"o":"m 506 522 q 465 542 488 535 q 417 550 442 550 q 297 493 340 550 q 254 356 254 436 l 254 0 l 83 0 l 83 694 l 253 694 l 253 613 q 336 685 288 658 q 445 713 384 713 q 491 711 469 713 q 533 703 513 710 l 506 522 z "},"s":{"ha":617,"x_min":42,"x_max":576,"o":"m 295 -12 q 143 31 214 -7 q 42 136 72 69 l 185 197 q 232 153 197 176 q 314 131 267 131 q 386 148 353 131 q 418 201 418 165 q 400 241 418 226 q 356 262 382 255 q 304 276 329 269 q 182 317 238 289 q 91 389 125 344 q 56 495 56 433 q 92 614 56 564 q 188 691 128 664 q 315 718 247 718 q 466 683 397 718 q 576 587 535 649 l 442 508 q 396 552 427 533 q 328 573 365 571 q 248 558 281 576 q 215 499 215 540 q 235 460 215 473 q 286 440 256 447 q 342 425 315 433 q 457 376 403 405 q 544 304 511 347 q 575 203 576 262 q 535 85 575 135 q 431 8 495 35 q 295 -12 367 -18 z "},"ß":{"ha":795,"x_min":83,"x_max":753,"o":"m 83 0 l 83 624 q 130 799 83 720 q 256 925 177 878 q 431 972 335 972 q 570 936 508 972 q 669 838 633 900 q 706 696 706 775 q 684 588 706 644 q 607 506 662 532 q 698 458 667 496 q 742 369 730 419 q 753 273 753 319 q 715 133 753 194 q 613 36 677 72 q 470 0 548 0 l 419 0 l 394 145 l 453 145 q 559 186 515 145 q 602 285 602 228 q 559 382 602 342 q 453 424 515 422 l 394 426 l 394 564 l 412 567 q 500 607 463 572 q 536 696 536 642 q 500 788 536 749 q 412 826 463 826 q 331 805 367 826 q 274 747 295 783 q 253 667 253 711 l 253 0 l 83 0 z "},"t":{"ha":497,"x_min":49,"x_max":456,"o":"m 456 525 l 321 525 l 321 0 l 151 0 l 151 525 l 49 525 l 49 694 l 151 694 l 151 913 l 321 913 l 321 694 l 456 694 l 456 525 z "},"u":{"ha":843,"x_min":83,"x_max":760,"o":"m 83 337 l 83 694 l 253 694 l 253 340 q 275 241 253 285 q 337 171 297 197 q 427 145 376 145 q 547 202 503 145 q 590 340 590 259 l 590 694 l 760 694 l 760 0 l 590 0 l 590 83 q 508 9 556 37 q 399 -19 460 -19 q 232 29 302 -19 q 123 158 162 77 q 83 337 84 239 z "},"ú":{"ha":843,"x_min":83,"x_max":760,"o":"m 83 337 l 83 694 l 253 694 l 253 340 q 275 241 253 285 q 337 171 297 197 q 427 145 376 145 q 547 202 503 145 q 590 340 590 259 l 590 694 l 760 694 l 760 0 l 590 0 l 590 83 q 508 9 556 37 q 399 -19 460 -19 q 232 29 302 -19 q 123 158 162 77 q 83 337 84 239 m 394 790 l 450 990 l 619 990 l 483 790 l 394 790 z "},"û":{"ha":843,"x_min":83,"x_max":760,"o":"m 83 337 l 83 694 l 253 694 l 253 340 q 275 241 253 285 q 337 171 297 197 q 427 145 376 145 q 547 202 503 145 q 590 340 590 259 l 590 694 l 760 694 l 760 0 l 590 0 l 590 83 q 508 9 556 37 q 399 -19 460 -19 q 232 29 302 -19 q 123 158 162 77 q 83 337 84 239 m 338 972 l 506 972 l 575 810 l 465 810 l 423 913 l 379 810 l 269 810 l 338 972 z "},"ü":{"ha":843,"x_min":83,"x_max":760,"o":"m 83 337 l 83 694 l 253 694 l 253 340 q 275 241 253 285 q 337 171 297 197 q 427 145 376 145 q 547 202 503 145 q 590 340 590 259 l 590 694 l 760 694 l 760 0 l 590 0 l 590 83 q 508 9 556 37 q 399 -19 460 -19 q 232 29 302 -19 q 123 158 162 77 q 83 337 84 239 m 285 783 q 222 808 248 783 q 197 870 197 833 q 222 932 197 907 q 285 958 248 958 q 347 932 322 958 q 372 870 372 907 q 347 808 372 833 q 285 783 322 783 m 560 783 q 497 808 523 783 q 472 870 472 833 q 497 932 472 907 q 560 958 523 958 q 622 932 597 958 q 648 870 648 907 q 622 808 648 833 q 560 783 597 783 z "},"ù":{"ha":843,"x_min":83,"x_max":760,"o":"m 83 337 l 83 694 l 253 694 l 253 340 q 275 241 253 285 q 337 171 297 197 q 427 145 376 145 q 547 202 503 145 q 590 340 590 259 l 590 694 l 760 694 l 760 0 l 590 0 l 590 83 q 508 9 556 37 q 399 -19 460 -19 q 232 29 302 -19 q 123 158 162 77 q 83 337 84 239 m 240 990 l 410 990 l 465 790 l 377 790 l 240 990 z "},"v":{"ha":808,"x_min":42,"x_max":766,"o":"m 513 0 l 294 0 l 42 695 l 222 695 l 404 195 l 585 695 l 766 695 l 513 0 z "},"w":{"ha":1184,"x_min":42,"x_max":1142,"o":"m 442 0 l 274 0 l 42 694 l 208 694 l 358 245 l 508 694 l 676 694 l 826 245 l 976 694 l 1142 694 l 910 0 l 742 0 l 592 451 l 442 0 z "},"ẃ":{"ha":1184,"x_min":42,"x_max":1142,"o":"m 442 0 l 274 0 l 42 694 l 208 694 l 358 245 l 508 694 l 676 694 l 826 245 l 976 694 l 1142 694 l 910 0 l 742 0 l 592 451 l 442 0 m 565 790 l 621 990 l 790 990 l 653 790 l 565 790 z "},"ŵ":{"ha":1184,"x_min":42,"x_max":1142,"o":"m 442 0 l 274 0 l 42 694 l 208 694 l 358 245 l 508 694 l 676 694 l 826 245 l 976 694 l 1142 694 l 910 0 l 742 0 l 592 451 l 442 0 m 508 972 l 676 972 l 745 810 l 635 810 l 593 913 l 549 810 l 439 810 l 508 972 z "},"ẅ":{"ha":1184,"x_min":42,"x_max":1142,"o":"m 442 0 l 274 0 l 42 694 l 208 694 l 358 245 l 508 694 l 676 694 l 826 245 l 976 694 l 1142 694 l 910 0 l 742 0 l 592 451 l 442 0 m 456 783 q 392 808 418 783 q 367 870 367 833 q 392 932 367 907 q 456 958 418 958 q 517 932 492 958 q 542 870 542 907 q 517 808 542 833 q 456 783 492 783 m 731 783 q 667 808 693 783 q 642 870 642 833 q 667 932 642 907 q 731 958 693 958 q 792 932 767 958 q 818 870 818 907 q 792 808 818 833 q 731 783 767 783 z "},"ẁ":{"ha":1184,"x_min":42,"x_max":1142,"o":"m 442 0 l 274 0 l 42 694 l 208 694 l 358 245 l 508 694 l 676 694 l 826 245 l 976 694 l 1142 694 l 910 0 l 742 0 l 592 451 l 442 0 m 410 990 l 580 990 l 635 790 l 547 790 l 410 990 z "},"x":{"ha":828,"x_min":56,"x_max":773,"o":"m 56 0 l 310 349 l 58 695 l 267 695 l 414 493 l 562 695 l 771 695 l 519 349 l 773 0 l 564 0 l 414 206 l 265 0 l 56 0 z "},"y":{"ha":795,"x_min":56,"x_max":740,"o":"m 560 694 l 740 694 l 360 -347 l 180 -347 l 306 0 l 56 694 l 241 694 l 390 232 l 560 694 z "},"ý":{"ha":795,"x_min":56,"x_max":740,"o":"m 560 694 l 740 694 l 360 -347 l 180 -347 l 306 0 l 56 694 l 241 694 l 390 232 l 560 694 m 370 790 l 426 990 l 595 990 l 458 790 l 370 790 z "},"ŷ":{"ha":795,"x_min":56,"x_max":740,"o":"m 560 694 l 740 694 l 360 -347 l 180 -347 l 306 0 l 56 694 l 241 694 l 390 232 l 560 694 m 314 972 l 481 972 l 551 810 l 440 810 l 399 913 l 355 810 l 244 810 l 314 972 z "},"ÿ":{"ha":795,"x_min":56,"x_max":740,"o":"m 560 694 l 740 694 l 360 -347 l 180 -347 l 306 0 l 56 694 l 241 694 l 390 232 l 560 694 m 261 783 q 198 808 224 783 q 172 870 172 833 q 198 932 172 907 q 261 958 224 958 q 323 932 297 958 q 348 870 348 907 q 323 808 348 833 q 261 783 297 783 m 536 783 q 473 808 499 783 q 447 870 447 833 q 473 932 447 907 q 536 958 499 958 q 598 932 572 958 q 624 870 624 907 q 598 808 624 833 q 536 783 572 783 z "},"ỳ":{"ha":795,"x_min":56,"x_max":740,"o":"m 560 694 l 740 694 l 360 -347 l 180 -347 l 306 0 l 56 694 l 241 694 l 390 232 l 560 694 m 216 990 l 385 990 l 441 790 l 353 790 l 216 990 z "},"z":{"ha":753,"x_min":80,"x_max":673,"o":"m 673 525 l 324 169 l 673 169 l 673 0 l 80 0 l 80 169 l 429 525 l 80 525 l 80 694 l 673 694 l 673 525 z "},"ª":{"ha":868,"x_min":49,"x_max":785,"o":"m 615 694 l 785 694 l 785 0 l 615 0 l 608 86 q 532 10 578 39 q 422 -18 485 -18 q 277 11 344 -18 q 158 91 209 40 q 78 210 107 142 q 50 355 49 278 q 97 535 49 454 q 226 665 145 617 q 406 714 308 714 q 530 683 476 714 q 623 606 585 653 l 615 694 m 426 145 q 523 174 482 145 q 585 250 564 202 q 602 355 606 297 q 570 453 597 409 q 500 524 543 497 q 406 550 458 550 q 307 522 351 550 q 240 445 264 493 q 222 340 217 398 q 256 242 226 286 q 330 172 285 198 q 426 145 375 145 z "},"º":{"ha":778,"x_min":42,"x_max":736,"o":"m 389 -18 q 214 31 293 -18 q 89 164 135 81 q 42 347 42 247 q 89 532 42 449 q 214 665 135 615 q 389 714 293 714 q 564 665 485 714 q 689 532 642 615 q 736 347 736 449 q 689 164 736 247 q 564 31 642 81 q 389 -18 485 -18 m 389 151 q 480 178 440 151 q 543 250 519 206 q 567 347 567 294 q 543 446 567 401 q 478 518 519 491 q 389 544 438 544 q 299 517 339 544 q 235 445 258 490 q 211 347 211 400 q 235 248 211 292 q 300 177 260 203 q 389 151 341 151 z "},"μ":{"ha":788,"x_min":56,"x_max":732,"o":"m 56 -300 l 56 694 l 225 694 l 225 340 q 247 241 225 285 q 309 171 269 197 q 399 145 349 145 q 519 202 475 145 q 563 340 563 259 l 563 694 l 732 694 l 732 0 l 563 0 l 563 83 q 480 9 528 37 q 371 -19 432 -19 q 291 -5 328 -19 q 225 34 253 10 l 225 -300 l 56 -300 z "},"₀":{"ha":450,"x_min":50,"x_max":400,"o":"m 225 -22 q 137 10 177 -22 q 74 97 97 42 q 50 217 50 151 q 74 338 50 283 q 137 424 97 392 q 225 456 177 456 q 313 424 274 456 q 376 338 353 392 q 400 217 400 283 q 376 97 400 151 q 313 10 353 42 q 225 -22 274 -22 m 225 80 q 265 103 249 80 q 290 158 282 126 q 299 217 299 190 q 290 280 299 249 q 264 333 281 312 q 225 354 248 354 q 184 332 200 354 q 159 278 167 310 q 151 217 151 247 q 160 154 151 185 q 185 101 169 122 q 225 80 202 80 z "},"₁":{"ha":313,"x_min":67,"x_max":213,"o":"m 112 0 l 112 337 l 67 337 l 81 438 l 213 438 l 213 0 l 112 0 z "},"₂":{"ha":496,"x_min":67,"x_max":396,"o":"m 67 0 l 67 90 q 151 146 106 116 q 236 213 197 176 q 294 295 276 249 q 276 339 294 322 q 232 357 258 357 q 187 339 206 357 q 168 295 168 322 l 67 295 q 89 377 67 340 q 149 436 111 414 q 232 458 187 458 q 314 436 277 458 q 374 377 351 414 q 396 295 396 340 q 373 224 396 258 q 317 159 351 190 q 250 101 283 128 l 390 101 l 390 0 l 67 0 z "},"₃":{"ha":401,"x_min":50,"x_max":351,"o":"m 201 -22 q 94 22 139 -22 q 50 128 50 65 l 151 128 q 166 93 151 107 q 201 80 180 80 q 235 93 221 80 q 249 128 249 107 q 228 173 249 152 q 165 193 206 193 l 165 261 q 222 279 206 261 q 238 317 238 297 q 225 343 238 333 q 197 354 213 354 q 170 343 182 354 q 158 317 158 333 l 57 317 q 98 415 57 375 q 197 456 140 456 q 297 415 256 456 q 338 317 338 375 q 308 230 338 267 q 351 128 351 188 q 306 22 351 65 q 201 -22 262 -22 z "},"₄":{"ha":480,"x_min":67,"x_max":380,"o":"m 238 0 l 238 68 l 67 68 l 67 190 l 224 438 l 339 438 l 339 169 l 380 169 l 380 68 l 339 68 l 339 0 l 238 0 m 166 169 l 247 169 l 247 298 l 166 169 z "},"₅":{"ha":485,"x_min":58,"x_max":385,"o":"m 221 -22 q 139 0 176 -22 q 80 57 102 21 q 58 138 58 93 l 160 138 q 177 97 160 113 q 221 80 195 80 q 265 97 247 80 q 283 138 283 113 q 265 182 283 164 q 221 199 247 199 l 81 194 l 105 436 l 342 436 l 342 347 l 197 347 l 194 299 l 223 301 q 342 254 300 301 q 385 138 385 207 q 363 57 385 93 q 303 0 340 21 q 221 -22 266 -22 z "},"₆":{"ha":474,"x_min":67,"x_max":390,"o":"m 228 -22 q 113 25 160 -22 q 67 138 67 71 q 72 175 67 158 q 91 221 76 192 q 135 300 106 249 q 213 435 164 350 l 331 435 l 249 294 q 352 240 315 284 q 390 137 390 196 q 368 56 390 92 q 309 -1 346 19 q 228 -22 272 -22 m 228 80 q 274 99 256 80 q 288 146 292 119 q 268 183 285 169 q 228 197 251 197 q 182 175 197 197 q 169 128 166 153 q 190 91 172 103 q 228 80 208 80 z "},"₇":{"ha":465,"x_min":83,"x_max":415,"o":"m 103 0 l 297 337 l 83 337 l 83 438 l 415 438 l 415 340 l 219 0 l 103 0 z "},"₈":{"ha":435,"x_min":67,"x_max":368,"o":"m 217 -22 q 110 20 154 -22 q 67 125 67 63 q 78 182 67 156 q 108 228 89 209 q 76 316 76 266 q 117 415 76 375 q 217 456 158 456 q 317 415 275 456 q 359 316 359 375 q 327 228 359 266 q 357 182 346 209 q 368 125 368 156 q 324 20 368 63 q 217 -22 280 -22 m 217 276 q 246 288 234 276 q 258 316 258 300 q 246 344 258 333 q 217 355 234 355 q 189 344 201 355 q 177 316 177 333 q 189 288 177 300 q 217 276 201 276 m 217 78 q 252 91 238 78 q 267 125 267 105 q 252 160 267 146 q 217 174 238 174 q 182 160 197 174 q 168 125 168 146 q 182 91 168 105 q 217 78 197 78 z "},"₉":{"ha":457,"x_min":47,"x_max":375,"o":"m 108 0 l 190 142 q 111 171 144 144 q 62 237 78 197 q 55 317 47 276 q 106 417 60 377 q 212 458 151 458 q 294 436 258 458 q 351 379 331 415 q 374 301 372 343 q 351 218 375 259 l 225 0 l 108 0 m 212 238 q 257 259 239 238 q 272 306 275 279 q 251 342 269 328 q 212 357 232 357 q 166 336 183 357 q 152 290 149 315 q 175 250 155 262 q 212 238 194 238 z "},"⁰":{"ha":450,"x_min":50,"x_max":400,"o":"m 225 554 q 137 585 177 554 q 74 668 97 615 q 50 788 50 721 q 74 906 50 853 q 137 989 97 958 q 225 1019 177 1019 q 313 989 274 1019 q 376 906 353 958 q 400 788 400 853 q 376 668 400 721 q 313 585 353 615 q 225 554 274 554 m 225 649 q 265 672 249 649 q 290 727 282 695 q 299 788 299 760 q 290 850 299 818 q 264 903 281 882 q 225 925 248 925 q 184 903 200 925 q 159 849 167 881 q 151 788 151 817 q 160 724 151 756 q 185 670 169 692 q 225 649 202 649 z "},"¹":{"ha":313,"x_min":67,"x_max":213,"o":"m 112 568 l 112 905 l 67 905 l 81 1006 l 213 1006 l 213 568 l 112 568 z "},"²":{"ha":496,"x_min":67,"x_max":396,"o":"m 67 568 l 67 658 q 151 714 106 684 q 236 780 197 744 q 294 863 276 817 q 276 907 294 889 q 232 925 258 925 q 187 907 206 925 q 168 863 168 889 l 67 863 q 115 975 67 931 q 232 1019 164 1019 q 348 975 300 1019 q 396 863 396 931 q 373 791 396 825 q 317 726 351 757 q 250 669 283 696 l 390 669 l 390 568 l 67 568 z "},"³":{"ha":401,"x_min":50,"x_max":351,"o":"m 201 554 q 94 594 139 554 q 50 697 50 635 l 151 697 q 166 663 151 676 q 201 649 180 649 q 235 663 221 649 q 249 697 249 676 q 228 743 249 722 q 165 763 206 763 l 165 831 q 222 848 206 831 q 238 887 238 866 q 225 914 238 903 q 197 924 213 924 q 170 914 182 924 q 158 887 158 903 l 57 887 q 98 982 57 944 q 197 1019 140 1019 q 297 982 256 1019 q 338 887 338 944 q 308 799 338 836 q 351 697 351 758 q 306 594 351 635 q 201 554 262 554 z "},"⁴":{"ha":480,"x_min":67,"x_max":380,"o":"m 238 568 l 238 636 l 67 636 l 67 758 l 224 1006 l 339 1006 l 339 738 l 380 738 l 380 636 l 339 636 l 339 568 l 238 568 m 166 738 l 247 738 l 247 866 l 166 738 z "},"⁵":{"ha":485,"x_min":58,"x_max":385,"o":"m 221 554 q 106 598 154 554 q 58 708 58 641 l 160 708 q 177 666 160 683 q 221 649 195 649 q 265 666 247 649 q 283 708 283 683 q 265 750 283 733 q 221 769 247 767 q 158 768 199 771 q 82 760 117 766 l 105 1006 l 342 1006 l 342 918 l 197 918 l 194 869 q 333 828 281 873 q 385 708 385 783 q 336 598 385 641 q 221 554 288 554 z "},"⁶":{"ha":490,"x_min":67,"x_max":390,"o":"m 228 554 q 113 597 160 554 q 67 708 67 640 q 71 744 67 727 q 90 790 76 762 q 134 869 105 819 q 213 1004 164 919 l 331 1004 l 249 865 q 352 810 315 853 q 390 706 390 766 q 342 596 390 638 q 228 554 294 554 m 228 649 q 274 668 256 649 q 288 716 292 688 q 268 753 285 739 q 228 767 251 767 q 181 745 197 767 q 169 699 165 723 q 190 660 172 672 q 228 649 208 649 z "},"⁷":{"ha":465,"x_min":83,"x_max":415,"o":"m 105 568 l 297 903 l 83 903 l 83 1005 l 415 1005 l 415 906 l 221 568 l 105 568 z "},"⁸":{"ha":435,"x_min":67,"x_max":368,"o":"m 217 554 q 110 593 154 554 q 67 694 67 632 q 78 752 67 725 q 108 798 89 778 q 76 885 76 835 q 117 983 76 944 q 217 1021 158 1021 q 317 983 275 1021 q 359 885 359 944 q 327 798 359 835 q 357 752 346 778 q 368 694 368 725 q 324 593 368 632 q 217 554 280 554 m 217 846 q 246 858 234 846 q 258 885 258 869 q 246 914 258 903 q 217 925 234 925 q 189 914 201 925 q 177 885 177 903 q 189 858 177 869 q 217 846 201 846 m 217 648 q 252 661 238 648 q 267 694 267 675 q 252 730 267 716 q 217 744 238 744 q 182 730 197 744 q 168 694 168 716 q 182 661 168 675 q 217 648 197 648 z "},"⁹":{"ha":457,"x_min":47,"x_max":376,"o":"m 108 568 l 190 710 q 111 739 144 713 q 62 805 78 765 q 55 885 47 844 q 106 982 60 944 q 212 1019 151 1019 q 300 995 262 1019 q 357 932 338 971 q 369 847 376 892 q 351 785 368 815 l 225 568 l 108 568 m 212 806 q 257 826 239 806 q 272 874 275 847 q 251 910 269 896 q 212 925 232 925 q 166 904 183 925 q 152 858 149 883 q 175 818 155 830 q 212 806 194 806 z "},"⁄":{"ha":701,"x_min":0,"x_max":701,"o":"m 0 0 l 561 972 l 701 972 l 140 0 l 0 0 z "},"½":{"ha":1510,"x_min":67,"x_max":1410,"o":"m 112 568 l 112 905 l 67 905 l 81 1006 l 213 1006 l 213 568 l 112 568 m 313 0 l 874 972 l 1015 972 l 453 0 l 313 0 m 1081 0 l 1081 90 q 1166 146 1120 116 q 1251 213 1211 176 q 1309 295 1290 249 q 1291 339 1309 322 q 1247 357 1273 357 q 1201 339 1220 357 q 1183 295 1183 322 l 1081 295 q 1103 377 1081 340 q 1164 436 1126 414 q 1247 458 1201 458 q 1329 436 1292 458 q 1388 377 1366 414 q 1410 295 1410 340 q 1388 224 1410 258 q 1332 159 1365 190 q 1265 101 1298 128 l 1404 101 l 1404 0 l 1081 0 z "},"¼":{"ha":1494,"x_min":67,"x_max":1394,"o":"m 112 568 l 112 905 l 67 905 l 81 1006 l 213 1006 l 213 568 l 112 568 m 313 0 l 874 972 l 1015 972 l 453 0 l 313 0 m 1252 0 l 1252 68 l 1081 68 l 1081 190 l 1239 438 l 1353 438 l 1353 169 l 1394 169 l 1394 68 l 1353 68 l 1353 0 l 1252 0 m 1181 169 l 1261 169 l 1261 298 l 1181 169 z "},"¾":{"ha":1582,"x_min":50,"x_max":1482,"o":"m 201 554 q 94 594 139 554 q 50 697 50 635 l 151 697 q 166 663 151 676 q 201 649 180 649 q 235 663 221 649 q 249 697 249 676 q 228 743 249 722 q 165 763 206 763 l 165 831 q 222 848 206 831 q 238 887 238 866 q 225 914 238 903 q 197 924 213 924 q 170 914 182 924 q 158 887 158 903 l 57 887 q 98 982 57 944 q 197 1019 140 1019 q 297 982 256 1019 q 338 887 338 944 q 308 799 338 836 q 351 697 351 758 q 306 594 351 635 q 201 554 262 554 m 401 0 l 962 972 l 1102 972 l 541 0 l 401 0 m 1340 0 l 1340 68 l 1169 68 l 1169 190 l 1326 438 l 1441 438 l 1441 169 l 1482 169 l 1482 68 l 1441 68 l 1441 0 l 1340 0 m 1268 169 l 1349 169 l 1349 298 l 1268 169 z "},"⅛":{"ha":1449,"x_min":67,"x_max":1383,"o":"m 112 568 l 112 905 l 67 905 l 81 1006 l 213 1006 l 213 568 l 112 568 m 313 0 l 874 972 l 1015 972 l 453 0 l 313 0 m 1231 -22 q 1125 20 1169 -22 q 1081 125 1081 63 q 1092 182 1081 156 q 1122 228 1103 209 q 1090 316 1090 266 q 1132 415 1090 375 q 1231 456 1173 456 q 1332 415 1290 456 q 1374 316 1374 375 q 1342 228 1374 266 q 1372 182 1360 209 q 1383 125 1383 156 q 1339 20 1383 63 q 1231 -22 1294 -22 m 1231 276 q 1260 288 1249 276 q 1272 316 1272 300 q 1260 344 1272 333 q 1231 355 1249 355 q 1203 344 1215 355 q 1192 316 1192 333 q 1203 288 1192 300 q 1231 276 1215 276 m 1231 78 q 1267 91 1252 78 q 1281 125 1281 105 q 1267 160 1281 146 q 1231 174 1252 174 q 1197 160 1211 174 q 1183 125 1183 146 q 1197 91 1183 105 q 1231 78 1211 78 z "},"⅜":{"ha":1537,"x_min":50,"x_max":1470,"o":"m 201 554 q 94 594 139 554 q 50 697 50 635 l 151 697 q 166 663 151 676 q 201 649 180 649 q 235 663 221 649 q 249 697 249 676 q 228 743 249 722 q 165 763 206 763 l 165 831 q 222 848 206 831 q 238 887 238 866 q 225 914 238 903 q 197 924 213 924 q 170 914 182 924 q 158 887 158 903 l 57 887 q 98 982 57 944 q 197 1019 140 1019 q 297 982 256 1019 q 338 887 338 944 q 308 799 338 836 q 351 697 351 758 q 306 594 351 635 q 201 554 262 554 m 401 0 l 962 972 l 1102 972 l 541 0 l 401 0 m 1319 -22 q 1213 20 1256 -22 q 1169 125 1169 63 q 1180 182 1169 156 q 1210 228 1191 209 q 1178 316 1178 266 q 1219 415 1178 375 q 1319 456 1260 456 q 1419 415 1377 456 q 1461 316 1461 375 q 1429 228 1461 266 q 1459 182 1448 209 q 1470 125 1470 156 q 1426 20 1470 63 q 1319 -22 1382 -22 m 1319 276 q 1348 288 1336 276 q 1360 316 1360 300 q 1348 344 1360 333 q 1319 355 1336 355 q 1291 344 1303 355 q 1279 316 1279 333 q 1291 288 1279 300 q 1319 276 1303 276 m 1319 78 q 1354 91 1340 78 q 1369 125 1369 105 q 1354 160 1369 146 q 1319 174 1340 174 q 1284 160 1299 174 q 1270 125 1270 146 q 1284 91 1270 105 q 1319 78 1299 78 z "},"⅝":{"ha":1621,"x_min":58,"x_max":1553,"o":"m 221 554 q 106 598 154 554 q 58 708 58 641 l 160 708 q 177 666 160 683 q 221 649 195 649 q 265 666 247 649 q 283 708 283 683 q 265 750 283 733 q 221 769 247 767 q 158 768 199 771 q 82 760 117 766 l 105 1006 l 342 1006 l 342 918 l 197 918 l 194 869 q 333 828 281 873 q 385 708 385 783 q 336 598 385 641 q 221 554 288 554 m 485 0 l 1046 972 l 1186 972 l 625 0 l 485 0 m 1402 -22 q 1296 20 1340 -22 q 1252 125 1252 63 q 1263 182 1252 156 q 1293 228 1274 209 q 1261 316 1261 266 q 1302 415 1261 375 q 1402 456 1344 456 q 1502 415 1460 456 q 1544 316 1544 375 q 1513 228 1544 266 q 1542 182 1531 209 q 1553 125 1553 156 q 1509 20 1553 63 q 1402 -22 1465 -22 m 1402 276 q 1431 288 1419 276 q 1443 316 1443 300 q 1431 344 1443 333 q 1402 355 1419 355 q 1374 344 1386 355 q 1363 316 1363 333 q 1374 288 1363 300 q 1402 276 1386 276 m 1402 78 q 1438 91 1423 78 q 1452 125 1452 105 q 1438 160 1452 146 q 1402 174 1423 174 q 1368 160 1382 174 q 1353 125 1353 146 q 1368 91 1353 105 q 1402 78 1382 78 z "},"⅞":{"ha":1600,"x_min":83,"x_max":1534,"o":"m 105 568 l 297 903 l 83 903 l 83 1005 l 415 1005 l 415 906 l 221 568 l 105 568 m 465 0 l 1026 972 l 1166 972 l 605 0 l 465 0 m 1383 -22 q 1276 20 1320 -22 q 1233 125 1233 63 q 1244 182 1233 156 q 1274 228 1255 209 q 1242 316 1242 266 q 1283 415 1242 375 q 1383 456 1324 456 q 1483 415 1441 456 q 1525 316 1525 375 q 1493 228 1525 266 q 1523 182 1512 209 q 1534 125 1534 156 q 1490 20 1534 63 q 1383 -22 1446 -22 m 1383 276 q 1412 288 1400 276 q 1424 316 1424 300 q 1412 344 1424 333 q 1383 355 1400 355 q 1355 344 1367 355 q 1343 316 1343 333 q 1355 288 1343 300 q 1383 276 1367 276 m 1383 78 q 1418 91 1403 78 q 1433 125 1433 105 q 1418 160 1433 146 q 1383 174 1403 174 q 1348 160 1363 174 q 1334 125 1334 146 q 1348 91 1334 105 q 1383 78 1363 78 z "},".":{"ha":313,"x_min":56,"x_max":230,"o":"m 142 -18 q 81 7 106 -18 q 56 69 56 33 q 81 131 56 105 q 142 156 106 156 q 204 131 178 156 q 230 69 230 105 q 204 7 230 33 q 142 -18 178 -18 z "},",":{"ha":351,"x_min":56,"x_max":268,"o":"m 56 -78 l 99 157 l 268 157 l 169 -78 l 56 -78 z "},":":{"ha":313,"x_min":56,"x_max":230,"o":"m 142 520 q 81 545 106 520 q 56 608 56 571 q 81 669 56 643 q 142 694 106 694 q 204 669 178 694 q 230 608 230 643 q 204 545 230 571 q 142 520 178 520 m 142 -18 q 81 7 106 -18 q 56 69 56 33 q 81 131 56 105 q 142 156 106 156 q 204 131 178 156 q 230 69 230 105 q 204 7 230 33 q 142 -18 178 -18 z "},";":{"ha":353,"x_min":56,"x_max":270,"o":"m 183 520 q 121 545 147 520 q 96 607 96 571 q 121 669 96 643 q 183 694 147 694 q 244 669 219 694 q 270 607 270 643 q 244 545 270 571 q 183 520 219 520 m 56 -78 l 99 157 l 268 157 l 169 -78 l 56 -78 z "},"…":{"ha":872,"x_min":56,"x_max":789,"o":"m 142 -18 q 81 7 106 -18 q 56 69 56 33 q 81 131 56 105 q 142 156 106 156 q 204 131 178 156 q 230 69 230 105 q 204 7 230 33 q 142 -18 178 -18 m 422 -18 q 361 7 386 -18 q 335 69 335 33 q 361 131 335 105 q 422 156 386 156 q 484 131 458 156 q 510 69 510 105 q 484 7 510 33 q 422 -18 458 -18 m 701 -18 q 640 7 665 -18 q 615 69 615 33 q 640 131 615 105 q 701 156 665 156 q 763 131 738 156 q 789 69 789 105 q 763 7 789 33 q 701 -18 738 -18 z "},"!":{"ha":312,"x_min":56,"x_max":228,"o":"m 71 292 l 71 972 l 214 972 l 214 292 l 71 292 m 143 -18 q 81 7 106 -18 q 56 70 56 33 q 81 131 56 106 q 143 156 106 156 q 203 131 178 156 q 228 70 228 106 q 203 7 228 33 q 143 -18 178 -18 z "},"¡":{"ha":306,"x_min":56,"x_max":228,"o":"m 142 713 q 203 687 178 713 q 228 624 228 662 q 203 563 228 588 q 142 538 178 538 q 81 563 106 538 q 56 624 56 588 q 81 687 56 662 q 142 713 106 713 m 213 403 l 213 -278 l 71 -278 l 71 403 l 213 403 z "},"?":{"ha":769,"x_min":56,"x_max":686,"o":"m 296 297 q 335 442 296 376 q 444 546 374 508 q 497 599 478 564 q 517 676 517 634 q 474 779 517 737 q 371 821 431 821 q 268 779 310 821 q 225 676 225 737 l 56 676 q 98 834 56 763 q 213 948 141 906 q 371 990 284 990 q 529 948 458 990 q 643 834 601 906 q 686 676 686 763 q 643 512 686 588 q 524 397 599 437 q 465 297 465 365 l 296 297 m 387 -18 q 325 8 350 -18 q 299 70 299 33 q 325 131 299 106 q 387 156 350 156 q 448 131 422 156 q 473 70 473 106 q 448 8 473 33 q 387 -18 422 -18 z "},"¿":{"ha":763,"x_min":56,"x_max":686,"o":"m 355 538 q 294 563 319 538 q 269 624 269 588 q 294 687 269 662 q 355 713 319 713 q 417 687 392 713 q 442 624 442 662 q 417 563 442 588 q 355 538 392 538 m 371 -296 q 213 -253 284 -296 q 98 -140 141 -211 q 56 18 56 -68 q 99 182 56 107 q 217 298 142 258 q 276 397 276 329 l 446 397 q 406 253 446 319 q 297 149 367 187 q 244 95 264 131 q 225 18 225 60 q 268 -84 225 -42 q 371 -126 310 -126 q 474 -84 431 -126 q 517 18 517 -42 l 686 18 q 643 -140 686 -68 q 529 -253 601 -211 q 371 -296 458 -296 z "},"·":{"ha":285,"x_min":56,"x_max":230,"o":"m 142 330 q 81 355 106 330 q 56 417 56 380 q 81 478 56 453 q 142 504 106 504 q 204 478 178 504 q 230 417 230 453 q 204 355 230 380 q 142 330 178 330 z "},"•":{"ha":344,"x_min":56,"x_max":288,"o":"m 172 301 q 89 334 123 301 q 56 417 56 368 q 89 499 56 465 q 172 533 123 533 q 254 499 219 533 q 288 417 288 465 q 254 334 288 368 q 172 301 219 301 z "},"*":{"ha":503,"x_min":35,"x_max":447,"o":"m 171 580 l 76 649 l 147 744 l 35 780 l 69 892 l 183 855 l 183 972 l 299 972 l 299 855 l 411 892 l 447 780 l 334 744 l 404 649 l 310 580 l 241 676 l 171 580 z "},"#":{"ha":1092,"x_min":56,"x_max":1037,"o":"m 992 610 l 877 610 l 810 363 l 927 363 l 883 199 l 767 199 l 713 0 l 544 0 l 598 199 l 341 199 l 288 0 l 119 0 l 172 199 l 56 199 l 100 363 l 215 363 l 283 610 l 165 610 l 210 773 l 326 773 l 379 972 l 549 972 l 495 773 l 751 773 l 804 972 l 974 972 l 921 773 l 1037 773 l 992 610 m 640 363 l 708 610 l 452 610 l 385 363 l 640 363 z "},"/":{"ha":563,"x_min":56,"x_max":507,"o":"m 507 972 l 225 -78 l 56 -78 l 338 972 l 507 972 z "},"\\":{"ha":561,"x_min":56,"x_max":506,"o":"m 336 -78 l 56 972 l 225 972 l 506 -78 l 336 -78 z "},"(":{"ha":526,"x_min":83,"x_max":457,"o":"m 288 -78 q 132 157 180 28 q 83 447 83 286 q 98 591 83 510 q 141 750 113 672 q 206 890 168 829 q 288 972 243 950 l 457 972 q 385 888 421 947 q 319 751 349 828 q 272 594 290 674 q 253 447 253 514 q 284 240 253 338 q 360 60 314 141 q 457 -78 407 -22 l 288 -78 z "},")":{"ha":526,"x_min":69,"x_max":443,"o":"m 69 -78 q 166 60 119 -22 q 243 240 213 141 q 274 447 273 338 q 255 594 273 514 q 207 751 237 674 q 141 888 177 828 q 69 972 106 947 l 239 972 q 321 890 283 950 q 386 750 358 829 q 428 591 413 672 q 443 447 443 510 q 395 157 443 286 q 239 -78 347 28 l 69 -78 z "},"{":{"ha":570,"x_min":83,"x_max":501,"o":"m 426 -78 q 303 -45 358 -78 q 215 43 248 -12 q 183 165 183 98 l 183 335 q 167 366 182 353 q 133 388 152 378 q 98 411 113 398 q 83 447 83 425 q 98 481 83 467 q 133 506 113 495 q 167 530 152 517 q 183 558 182 542 l 183 729 q 215 851 183 796 q 303 939 248 906 q 426 972 358 972 l 501 972 l 501 803 l 426 803 q 374 781 395 803 q 352 729 352 760 l 352 553 q 338 513 351 529 q 310 482 325 497 q 285 447 294 467 q 310 411 295 426 q 338 381 326 397 q 352 342 351 365 l 352 165 q 374 113 352 135 q 426 92 395 92 l 501 92 l 501 -78 l 426 -78 z "},"}":{"ha":570,"x_min":69,"x_max":487,"o":"m 69 -78 l 69 92 l 144 92 q 197 113 175 92 q 218 165 218 135 l 218 342 q 232 381 219 365 q 260 411 244 397 q 284 447 275 426 q 260 482 275 467 q 232 513 244 497 q 218 553 219 529 l 218 729 q 197 781 218 760 q 144 803 175 803 l 69 803 l 69 972 l 144 972 q 267 939 212 972 q 355 851 322 906 q 388 729 388 796 l 388 558 q 403 530 388 542 q 438 506 418 517 q 472 481 457 495 q 487 447 487 467 q 472 411 487 425 q 438 388 457 398 q 403 366 418 378 q 388 335 388 353 l 388 165 q 355 43 388 98 q 267 -45 322 -12 q 144 -78 212 -78 l 69 -78 z "},"[":{"ha":445,"x_min":83,"x_max":376,"o":"m 376 92 l 376 -78 l 83 -78 l 83 972 l 376 972 l 376 803 l 253 803 l 253 92 l 376 92 z "},"]":{"ha":446,"x_min":69,"x_max":363,"o":"m 69 -78 l 69 92 l 193 92 l 193 803 l 69 803 l 69 972 l 363 972 l 363 -78 l 69 -78 z "},"-":{"ha":611,"x_min":83,"x_max":528,"o":"m 83 501 l 528 501 l 528 332 l 83 332 l 83 501 z "},"­":{"ha":617,"x_min":90,"x_max":534,"o":"m 90 501 l 534 501 l 534 332 l 90 332 l 90 501 z "},"–":{"ha":861,"x_min":83,"x_max":778,"o":"m 83 501 l 778 501 l 778 332 l 83 332 l 83 501 z "},"—":{"ha":1417,"x_min":83,"x_max":1333,"o":"m 83 501 l 1333 501 l 1333 332 l 83 332 l 83 501 z "},"_":{"ha":861,"x_min":83,"x_max":778,"o":"m 83 92 l 778 92 l 778 -78 l 83 -78 l 83 92 z "},"‚":{"ha":317,"x_min":49,"x_max":262,"o":"m 49 -78 l 92 157 l 262 157 l 163 -78 l 49 -78 z "},"„":{"ha":573,"x_min":49,"x_max":517,"o":"m 49 -78 l 92 157 l 262 157 l 163 -78 l 49 -78 m 305 -78 l 348 157 l 517 157 l 418 -78 l 305 -78 z "},"“":{"ha":558,"x_min":83,"x_max":531,"o":"m 83 610 l 183 972 l 296 972 l 253 610 l 83 610 m 318 613 l 417 975 l 531 975 l 488 613 l 318 613 z "},"”":{"ha":558,"x_min":28,"x_max":475,"o":"m 28 610 l 71 972 l 240 972 l 141 610 l 28 610 m 263 610 l 306 972 l 475 972 l 376 610 l 263 610 z "},"ʻ":{"ha":282,"x_min":42,"x_max":254,"o":"m 42 610 l 141 972 l 254 972 l 211 610 l 42 610 z "},"’":{"ha":282,"x_min":28,"x_max":240,"o":"m 28 610 l 71 972 l 240 972 l 141 610 l 28 610 z "},"«":{"ha":817,"x_min":83,"x_max":747,"o":"m 292 181 l 83 417 l 292 652 l 465 652 l 257 417 l 465 181 l 292 181 m 574 181 l 366 417 l 574 652 l 747 652 l 540 417 l 747 181 l 574 181 z "},"»":{"ha":831,"x_min":69,"x_max":733,"o":"m 352 181 l 559 417 l 352 652 l 525 652 l 733 417 l 525 181 l 352 181 m 69 181 l 276 417 l 69 652 l 242 652 l 451 417 l 242 181 l 69 181 z "},"‹":{"ha":534,"x_min":83,"x_max":465,"o":"m 292 181 l 83 417 l 292 652 l 465 652 l 257 417 l 465 181 l 292 181 z "},"›":{"ha":534,"x_min":69,"x_max":451,"o":"m 69 181 l 276 417 l 69 652 l 242 652 l 451 417 l 242 181 l 69 181 z "},"‵":{"ha":379,"x_min":83,"x_max":296,"o":"m 183 610 l 83 972 l 253 972 l 296 610 l 183 610 z "},"\"":{"ha":409,"x_min":45,"x_max":364,"o":"m 45 610 l 45 972 l 161 972 l 161 610 l 45 610 m 248 610 l 248 972 l 364 972 l 364 610 l 248 610 z "},"'":{"ha":206,"x_min":45,"x_max":161,"o":"m 45 610 l 45 972 l 161 972 l 161 610 l 45 610 z "}," ":{"ha":694,"x_min":0,"x_max":0,"o":""}," ":{"ha":333,"x_min":0,"x_max":0,"o":""}," ":{"ha":333,"x_min":0,"x_max":0,"o":""}," ":{"ha":278,"x_min":0,"x_max":0,"o":""},"​":{"ha":0,"x_min":0,"x_max":0,"o":""},"\r":{"ha":833,"x_min":0,"x_max":0,"o":""},"\u0000":{"ha":833,"x_min":0,"x_max":0,"o":""},"¢":{"ha":758,"x_min":56,"x_max":703,"o":"m 345 0 l 345 143 q 198 206 263 158 q 94 328 132 255 q 56 488 56 401 q 94 647 56 574 q 198 768 132 719 q 345 831 263 817 l 345 972 l 462 972 l 462 831 q 601 775 538 818 q 703 668 664 732 l 556 583 q 490 644 531 622 q 404 667 449 667 q 315 642 356 667 q 249 577 274 618 q 225 488 225 537 q 250 397 225 438 q 315 331 274 356 q 404 307 356 307 q 490 330 449 307 q 556 390 531 352 l 703 306 q 601 199 664 242 q 462 143 538 156 l 462 0 l 345 0 z "},"¤":{"ha":713,"x_min":56,"x_max":658,"o":"m 138 185 l 56 267 l 145 358 q 109 486 109 416 q 147 615 109 556 l 56 706 l 138 787 l 228 697 q 357 734 285 733 q 486 699 428 734 l 576 787 l 658 706 l 569 617 q 608 486 608 558 q 570 355 608 415 l 658 267 l 576 185 l 488 272 q 357 235 427 235 q 226 274 287 235 l 138 185 m 358 351 q 452 391 413 352 q 491 485 491 429 q 451 580 491 544 q 358 618 411 617 q 263 578 301 619 q 225 485 225 538 q 265 390 225 429 q 358 351 304 351 z "},"$":{"ha":840,"x_min":56,"x_max":784,"o":"m 419 819 q 326 803 370 819 q 254 759 282 788 q 226 695 226 731 q 252 625 226 649 q 322 590 278 601 q 419 571 366 579 q 599 519 517 556 q 732 423 682 483 q 782 276 782 363 q 741 136 782 197 q 631 35 700 74 q 478 -14 562 -3 l 478 -156 l 362 -156 l 362 -14 q 172 53 257 -1 q 56 194 88 107 l 215 253 q 288 181 229 211 q 419 151 346 151 q 514 167 469 151 q 585 211 558 183 q 613 276 613 239 q 584 339 613 315 q 511 378 556 364 q 419 401 467 393 q 234 450 316 417 q 105 542 152 483 q 57 695 57 601 q 98 836 57 774 q 209 936 140 898 q 362 985 278 975 l 362 1128 l 478 1128 l 478 985 q 608 950 546 977 q 716 879 670 923 q 784 776 763 835 l 624 718 q 551 790 609 760 q 419 819 494 819 z "},"€":{"ha":778,"x_min":56,"x_max":723,"o":"m 723 -11 q 489 7 599 -32 q 298 132 378 47 q 183 335 218 217 l 56 335 l 56 451 l 163 451 l 163 519 l 56 519 l 56 635 l 183 635 q 298 841 217 755 q 489 965 379 926 q 723 983 599 1004 l 723 808 q 576 813 646 830 q 452 749 506 796 q 367 635 397 703 l 555 635 l 555 519 l 332 519 l 333 451 l 555 451 l 555 335 l 368 335 q 455 220 400 266 q 579 159 510 175 q 723 164 648 144 l 723 -11 z "},"£":{"ha":830,"x_min":56,"x_max":774,"o":"m 72 0 l 72 169 q 144 178 108 169 q 210 205 181 188 q 251 245 239 222 q 250 300 263 269 q 247 310 249 305 l 72 310 l 72 426 l 161 426 q 89 517 122 468 q 56 631 56 566 q 84 770 56 706 q 161 885 112 835 q 275 962 210 934 q 415 990 340 990 q 595 942 513 990 q 726 812 677 893 q 774 631 774 731 l 605 631 q 579 726 605 683 q 510 795 553 769 q 415 821 467 821 q 319 795 363 821 q 251 726 276 769 q 225 631 225 683 q 244 548 225 583 q 291 484 263 513 q 347 426 319 456 l 607 426 l 607 310 l 419 310 q 427 249 427 281 q 416 201 427 224 q 392 169 404 178 l 760 169 l 760 0 l 72 0 z "},"¥":{"ha":927,"x_min":45,"x_max":882,"o":"m 379 0 l 379 103 l 211 103 l 211 219 l 379 219 l 379 288 l 211 288 l 211 403 l 379 403 l 379 438 l 45 972 l 244 972 l 464 623 l 683 972 l 882 972 l 549 438 l 549 403 l 717 403 l 717 288 l 549 288 l 549 219 l 717 219 l 717 103 l 549 103 l 549 0 l 379 0 z "},"+":{"ha":806,"x_min":56,"x_max":750,"o":"m 318 69 l 318 332 l 56 332 l 56 501 l 318 501 l 318 764 l 488 764 l 488 501 l 750 501 l 750 332 l 488 332 l 488 69 l 318 69 z "},"−":{"ha":806,"x_min":56,"x_max":750,"o":"m 56 332 l 56 501 l 750 501 l 750 332 l 56 332 z "},"×":{"ha":722,"x_min":56,"x_max":666,"o":"m 175 111 l 56 231 l 240 417 l 56 603 l 175 722 l 360 536 l 546 722 l 666 603 l 480 417 l 666 231 l 546 111 l 360 297 l 175 111 z "},"÷":{"ha":806,"x_min":56,"x_max":750,"o":"m 403 760 q 468 733 440 760 q 495 667 495 705 q 468 602 495 629 q 403 574 440 574 q 336 602 363 574 q 310 667 310 629 q 336 733 310 705 q 403 760 363 760 m 56 332 l 56 501 l 750 501 l 750 332 l 56 332 m 403 259 q 468 231 440 259 q 496 166 496 203 q 468 100 496 128 q 403 73 440 73 q 336 100 363 73 q 310 166 310 128 q 336 231 310 203 q 403 259 363 259 z "},"=":{"ha":806,"x_min":56,"x_max":750,"o":"m 56 481 l 56 651 l 750 651 l 750 481 l 56 481 m 56 183 l 56 352 l 750 352 l 750 183 l 56 183 z "},"≠":{"ha":806,"x_min":56,"x_max":750,"o":"m 609 821 l 559 651 l 750 651 l 750 481 l 509 481 l 472 352 l 750 352 l 750 183 l 422 183 l 372 13 l 195 13 l 246 183 l 56 183 l 56 352 l 295 352 l 333 481 l 56 481 l 56 651 l 383 651 l 433 821 l 609 821 z "},">":{"ha":806,"x_min":56,"x_max":750,"o":"m 56 84 l 56 260 l 627 417 l 56 573 l 56 749 l 750 557 l 750 275 l 56 84 z "},"<":{"ha":806,"x_min":56,"x_max":750,"o":"m 750 78 l 56 275 l 56 557 l 750 756 l 750 579 l 178 417 l 750 253 l 750 78 z "},"≥":{"ha":806,"x_min":56,"x_max":750,"o":"m 56 244 l 56 420 l 627 576 l 56 733 l 56 909 l 750 717 l 750 435 l 56 244 m 56 0 l 56 169 l 750 169 l 750 0 l 56 0 z "},"≤":{"ha":806,"x_min":56,"x_max":750,"o":"m 750 231 l 56 428 l 56 710 l 750 909 l 750 733 l 178 570 l 750 407 l 750 231 m 56 0 l 56 169 l 750 169 l 750 0 l 56 0 z "},"±":{"ha":806,"x_min":56,"x_max":750,"o":"m 318 262 l 318 524 l 56 524 l 56 694 l 318 694 l 318 956 l 488 956 l 488 694 l 750 694 l 750 524 l 488 524 l 488 262 l 318 262 m 56 0 l 56 169 l 750 169 l 750 0 l 56 0 z "},"≈":{"ha":906,"x_min":21,"x_max":830,"o":"m 640 472 q 542 491 594 472 q 437 533 490 509 q 337 575 384 557 q 253 594 290 594 q 207 569 220 594 q 196 513 193 544 l 31 515 q 47 631 21 576 q 123 719 72 685 q 237 753 173 753 q 329 734 281 753 q 423 690 376 715 q 514 646 470 665 q 594 627 557 627 q 643 651 628 627 q 653 708 658 676 l 820 707 q 810 591 830 645 q 747 505 791 538 q 640 472 703 472 m 640 92 q 542 110 594 92 q 437 152 490 128 q 337 195 384 176 q 253 213 290 213 q 207 188 220 213 q 196 133 193 163 l 31 135 q 47 250 21 196 q 123 339 72 305 q 237 372 173 372 q 329 353 281 372 q 423 309 376 334 q 514 266 470 285 q 594 247 557 247 q 643 271 628 247 q 653 328 658 295 l 820 326 q 810 211 830 265 q 747 124 791 157 q 640 92 703 92 z "},"~":{"ha":906,"x_min":49,"x_max":858,"o":"m 667 276 q 570 295 622 276 q 465 337 517 313 q 365 380 412 361 q 281 398 317 398 q 234 373 248 398 q 224 317 221 348 l 58 319 q 74 435 49 381 q 150 523 100 490 q 265 557 201 557 q 357 538 309 557 q 451 494 404 519 q 541 450 498 469 q 622 431 585 431 q 670 456 656 431 q 681 513 685 480 l 848 511 q 838 395 858 449 q 775 309 819 342 q 667 276 731 276 z "},"¬":{"ha":710,"x_min":56,"x_max":655,"o":"m 485 201 l 485 463 l 56 463 l 56 633 l 655 633 l 655 201 l 485 201 z "},"^":{"ha":666,"x_min":56,"x_max":610,"o":"m 56 694 l 219 1146 l 447 1146 l 610 694 l 429 694 l 333 961 l 236 694 l 56 694 z "},"∅":{"ha":806,"x_min":56,"x_max":750,"o":"m 251 -52 l 132 17 l 168 79 q 86 199 117 129 q 56 347 56 268 q 102 532 56 449 q 228 665 149 615 q 403 714 307 714 q 521 692 466 714 l 555 749 l 674 680 l 638 617 q 720 497 690 567 q 750 347 750 428 q 703 164 750 247 q 577 31 656 81 q 403 -18 499 -18 q 284 5 342 -18 l 251 -52 m 252 222 l 444 556 q 332 541 385 569 q 246 460 279 514 q 213 338 213 406 q 223 274 213 303 q 252 222 233 245 m 361 140 q 476 155 423 127 q 561 236 528 182 q 593 357 593 290 q 582 421 593 391 q 554 474 572 451 l 361 140 z "},"∞":{"ha":1056,"x_min":56,"x_max":1001,"o":"m 304 176 q 122 258 188 187 q 56 429 56 329 q 87 556 56 499 q 175 647 119 613 q 304 682 231 681 q 426 651 374 682 q 528 559 478 619 q 632 651 580 620 q 749 682 685 682 q 885 646 829 681 q 971 554 942 611 q 1001 429 1001 497 q 970 302 1001 358 q 883 211 939 245 q 753 176 827 178 q 633 207 684 176 q 528 299 581 237 q 424 204 476 235 q 304 176 372 172 m 755 331 q 824 363 799 333 q 849 429 849 392 q 824 497 849 467 q 758 528 799 526 q 685 498 716 528 q 623 429 653 469 q 685 360 653 390 q 755 331 717 331 m 303 331 q 376 363 343 331 q 435 429 408 395 q 374 497 406 466 q 303 526 342 528 q 234 494 258 524 q 209 429 209 465 q 235 360 209 388 q 303 331 262 333 z "},"∫":{"ha":746,"x_min":52,"x_max":694,"o":"m 247 -18 q 146 8 190 -18 q 77 79 101 34 q 56 182 52 124 l 163 174 q 172 134 166 150 q 200 117 178 118 q 238 129 222 117 q 256 163 253 141 l 324 849 q 357 921 329 889 q 425 972 385 953 q 507 990 465 991 q 604 961 560 990 q 671 887 647 933 q 690 790 694 841 l 592 799 q 571 843 588 831 q 533 853 554 856 q 503 839 516 852 q 488 805 490 826 l 422 123 q 356 15 405 48 q 247 -18 306 -18 z "},"∏":{"ha":889,"x_min":56,"x_max":833,"o":"m 56 972 l 833 972 l 833 803 l 738 803 l 738 0 l 568 0 l 568 803 l 321 803 l 321 0 l 151 0 l 151 803 l 56 803 l 56 972 z "},"∑":{"ha":641,"x_min":56,"x_max":599,"o":"m 56 0 l 56 169 l 217 485 l 56 800 l 56 969 l 599 969 l 599 800 l 247 800 l 407 485 l 247 169 l 599 169 l 599 0 l 56 0 z "},"√":{"ha":935,"x_min":56,"x_max":879,"o":"m 626 972 l 879 972 l 879 803 l 744 803 l 451 0 l 235 0 l 56 492 l 235 492 l 343 199 l 626 972 z "},"∂":{"ha":810,"x_min":56,"x_max":754,"o":"m 406 -18 q 230 29 309 -18 q 103 156 150 76 q 56 331 56 235 q 103 507 56 427 q 230 633 150 586 q 406 681 309 681 q 516 639 470 681 q 480 725 501 681 q 427 807 459 769 q 349 867 395 844 q 240 890 303 890 l 238 1060 q 450 1003 355 1060 q 613 847 544 946 q 717 622 681 749 q 754 357 753 496 q 709 163 754 247 q 585 30 664 78 q 406 -18 507 -18 m 406 151 q 495 176 455 151 q 560 241 536 201 q 585 331 585 282 q 560 421 585 380 q 495 486 536 462 q 406 511 455 511 q 315 486 356 511 q 249 421 274 462 q 225 331 225 380 q 249 241 225 282 q 315 176 274 200 q 406 151 356 151 z "},"µ":{"ha":788,"x_min":56,"x_max":732,"o":"m 56 -300 l 56 694 l 225 694 l 225 340 q 247 241 225 285 q 309 171 269 197 q 399 145 349 145 q 519 202 475 145 q 563 340 563 259 l 563 694 l 732 694 l 732 0 l 563 0 l 563 83 q 480 9 528 37 q 371 -19 432 -19 q 291 -5 328 -19 q 225 34 253 10 l 225 -300 l 56 -300 z "},"%":{"ha":1047,"x_min":56,"x_max":992,"o":"m 145 0 l 706 972 l 902 972 l 341 0 l 145 0 m 265 551 q 160 578 208 551 q 84 653 113 606 q 56 758 56 700 q 84 865 56 818 q 161 940 113 913 q 265 967 208 967 q 369 939 322 967 q 444 864 416 911 q 472 758 472 817 q 443 652 472 699 q 367 578 415 605 q 265 551 320 551 m 265 667 q 329 693 302 667 q 356 758 356 720 q 329 824 356 797 q 265 850 302 850 q 199 824 226 850 q 172 758 172 797 q 199 693 172 720 q 265 667 226 667 m 783 5 q 678 34 725 5 q 603 110 631 63 q 575 213 575 158 q 604 319 575 272 q 680 394 633 367 q 783 422 727 422 q 890 393 842 422 q 964 316 937 364 q 992 213 992 268 q 964 108 992 156 q 888 33 935 61 q 783 5 840 5 m 783 121 q 848 148 821 121 q 876 213 876 175 q 848 278 876 251 q 783 306 821 306 q 718 278 745 306 q 691 213 691 251 q 718 148 691 175 q 783 121 745 121 z "},"‰":{"ha":1497,"x_min":56,"x_max":1442,"o":"m 145 0 l 706 972 l 902 972 l 341 0 l 145 0 m 265 551 q 160 578 208 551 q 84 653 113 606 q 56 758 56 700 q 84 865 56 818 q 161 940 113 913 q 265 967 208 967 q 369 939 322 967 q 444 863 416 910 q 472 758 472 816 q 443 652 472 699 q 367 578 415 605 q 265 551 320 551 m 265 667 q 329 693 302 667 q 356 758 356 720 q 329 824 356 797 q 265 850 302 850 q 199 824 226 850 q 172 758 172 797 q 199 693 172 720 q 265 667 226 667 m 773 5 q 668 34 715 5 q 593 110 621 63 q 565 213 565 158 q 594 319 565 272 q 670 394 623 367 q 773 422 717 422 q 880 393 833 422 q 955 316 927 364 q 982 213 982 268 q 954 108 982 156 q 878 33 926 61 q 773 5 831 5 m 1233 5 q 1127 34 1174 5 q 1052 110 1080 63 q 1024 213 1024 158 q 1053 319 1024 272 q 1130 394 1083 367 q 1233 422 1177 422 q 1340 393 1292 422 q 1414 316 1387 364 q 1442 213 1442 268 q 1413 108 1442 156 q 1338 33 1385 61 q 1233 5 1290 5 m 773 121 q 839 148 811 121 q 866 213 866 175 q 839 278 866 251 q 773 306 811 306 q 708 278 735 306 q 681 213 681 251 q 708 148 681 175 q 773 121 735 121 m 1233 121 q 1298 148 1271 121 q 1326 213 1326 175 q 1298 278 1326 251 q 1233 306 1271 306 q 1168 278 1195 306 q 1141 213 1141 251 q 1168 148 1141 175 q 1233 121 1195 121 z "},"↑":{"ha":850,"x_min":56,"x_max":794,"o":"m 340 88 l 340 629 l 176 465 l 56 585 l 425 954 l 794 585 l 675 465 l 510 629 l 510 88 l 340 88 z "},"↗":{"ha":783,"x_min":56,"x_max":728,"o":"m 175 185 l 56 305 l 439 687 l 204 687 l 204 856 l 728 856 l 728 334 l 558 334 l 558 567 l 175 185 z "},"→":{"ha":978,"x_min":56,"x_max":922,"o":"m 553 151 l 433 271 l 597 436 l 56 436 l 56 606 l 597 606 l 433 771 l 553 890 l 922 521 l 553 151 z "},"↘":{"ha":783,"x_min":56,"x_max":728,"o":"m 206 185 l 206 355 l 439 355 l 56 737 l 175 856 l 558 474 l 558 708 l 728 708 l 728 185 l 206 185 z "},"↓":{"ha":849,"x_min":56,"x_max":794,"o":"m 424 88 l 56 457 l 175 577 l 339 413 l 339 954 l 508 954 l 508 413 l 674 577 l 794 457 l 424 88 z "},"↙":{"ha":783,"x_min":56,"x_max":728,"o":"m 56 185 l 56 708 l 225 708 l 225 474 l 608 856 l 728 737 l 344 355 l 578 355 l 578 185 l 56 185 z "},"←":{"ha":976,"x_min":56,"x_max":921,"o":"m 425 151 l 56 521 l 425 890 l 544 771 l 380 606 l 921 606 l 921 436 l 380 436 l 544 271 l 425 151 z "},"↖":{"ha":783,"x_min":56,"x_max":728,"o":"m 608 185 l 225 568 l 225 335 l 56 335 l 56 857 l 578 857 l 578 688 l 345 688 l 728 304 l 608 185 z "},"↔":{"ha":1280,"x_min":56,"x_max":1224,"o":"m 425 151 l 56 521 l 425 890 l 544 771 l 380 606 l 899 606 l 735 771 l 854 890 l 1224 521 l 854 151 l 735 271 l 899 436 l 380 436 l 544 271 l 425 151 z "},"↕":{"ha":850,"x_min":56,"x_max":794,"o":"m 425 -64 l 56 306 l 175 426 l 340 262 l 340 780 l 175 616 l 56 736 l 425 1106 l 794 736 l 675 616 l 510 780 l 510 262 l 675 426 l 794 306 l 425 -64 z "},"◊":{"ha":751,"x_min":42,"x_max":710,"o":"m 228 0 l 42 488 l 226 972 l 525 972 l 710 488 l 524 0 l 228 0 m 376 93 l 533 488 l 376 882 l 220 488 l 376 93 z "},"@":{"ha":1274,"x_min":56,"x_max":1218,"o":"m 637 -174 q 411 -133 517 -174 q 226 -17 306 -92 q 101 160 146 58 q 56 382 56 262 q 101 608 56 503 q 226 794 146 714 q 411 919 306 874 q 637 964 517 964 q 864 918 758 964 q 1049 793 969 873 q 1173 607 1128 713 q 1218 382 1218 502 q 1202 252 1218 316 q 1154 137 1185 188 q 1076 56 1122 86 q 971 25 1031 25 q 884 44 928 25 q 808 94 840 63 q 769 163 776 126 q 705 121 742 136 q 622 106 667 106 q 483 143 545 106 q 383 243 420 181 q 346 382 346 306 q 383 521 346 458 q 483 621 420 584 q 622 658 545 658 q 708 645 663 658 q 778 608 753 631 l 778 644 l 904 617 l 904 251 q 920 210 904 226 q 960 194 935 194 q 1011 227 992 194 q 1040 303 1031 259 q 1049 382 1049 347 q 1016 543 1049 468 q 927 674 984 617 q 796 763 870 731 q 637 794 722 794 q 477 763 552 794 q 346 674 403 731 q 257 543 290 617 q 225 382 225 468 q 281 181 225 268 q 430 44 336 94 q 637 -5 523 -5 l 637 -174 m 635 232 q 738 278 697 232 q 778 385 778 325 q 739 489 778 445 q 635 532 699 532 q 530 489 574 532 q 485 382 485 445 q 530 276 485 320 q 635 232 574 232 z "},"&":{"ha":994,"x_min":56,"x_max":938,"o":"m 354 -18 q 201 24 269 -18 q 95 134 134 65 q 56 281 56 202 q 64 359 56 326 q 92 424 72 392 q 147 493 113 456 q 235 584 182 531 q 174 651 197 622 q 142 710 151 681 q 133 778 133 739 q 164 892 133 842 q 245 972 194 943 q 354 1001 295 1001 q 466 971 416 1001 q 547 891 517 942 q 577 778 577 840 q 567 709 577 738 q 534 650 557 679 q 474 584 512 622 l 658 401 l 833 576 l 833 337 l 776 281 l 938 119 l 818 0 l 658 160 q 565 72 603 107 q 496 18 527 38 q 431 -10 465 -2 q 354 -18 398 -18 m 354 679 q 401 724 385 709 q 423 751 417 740 q 428 781 428 763 q 405 835 428 815 q 354 855 381 855 q 303 833 325 855 q 281 781 281 812 q 288 750 281 763 q 310 722 294 738 q 354 679 326 706 m 354 151 q 409 163 387 151 q 459 202 431 174 q 538 281 488 231 l 354 464 q 274 383 302 412 q 236 334 247 355 q 225 281 225 313 q 264 188 225 224 q 354 151 303 151 z "},"¶":{"ha":735,"x_min":56,"x_max":679,"o":"m 292 -210 l 292 499 q 173 531 226 499 q 88 616 119 563 q 56 736 56 670 q 88 855 56 801 q 173 940 119 908 q 292 972 226 972 l 461 972 l 461 -210 l 292 -210 m 510 -210 l 510 972 l 679 972 l 679 -210 l 510 -210 z "},"§":{"ha":765,"x_min":83,"x_max":682,"o":"m 377 -258 q 225 -224 294 -258 q 116 -127 156 -189 l 250 -48 q 296 -92 265 -72 q 363 -113 327 -111 q 444 -98 410 -116 q 477 -40 477 -81 q 457 1 477 -13 q 407 23 436 16 q 349 35 377 31 q 213 91 273 46 q 118 203 153 136 q 83 347 83 271 q 119 489 83 424 q 213 593 154 555 q 130 730 130 639 q 166 849 130 799 q 261 925 202 899 q 388 952 320 952 q 540 918 471 952 q 649 822 609 883 l 515 742 q 469 786 501 767 q 402 808 438 806 q 322 793 355 810 q 288 734 288 775 q 308 694 288 708 q 356 673 327 681 q 413 660 384 666 q 607 555 533 638 q 682 347 682 472 q 646 205 682 270 q 551 102 610 140 q 635 -35 635 55 q 599 -154 635 -104 q 504 -231 563 -204 q 377 -258 445 -258 m 390 186 q 461 209 428 186 q 513 268 494 232 q 533 346 533 305 q 487 464 533 419 q 371 508 441 508 q 303 485 335 508 q 252 424 272 461 q 233 347 233 388 q 277 233 233 279 q 390 186 322 186 z "},"©":{"ha":1324,"x_min":56,"x_max":1268,"o":"m 661 -222 q 426 -175 535 -222 q 233 -44 316 -128 q 102 149 149 39 q 56 385 56 259 q 102 620 56 510 q 233 813 149 730 q 426 943 316 897 q 661 990 535 990 q 897 943 787 990 q 1091 814 1007 897 q 1221 620 1174 731 q 1268 385 1268 510 q 1221 149 1268 259 q 1091 -44 1174 39 q 897 -175 1007 -128 q 661 -222 787 -222 m 661 -52 q 833 -17 753 -52 q 973 78 913 17 q 1065 217 1032 138 q 1099 385 1099 296 q 1065 553 1099 474 q 971 693 1031 633 q 832 787 911 753 q 661 821 752 821 q 490 786 569 821 q 351 691 410 751 q 258 552 292 631 q 225 385 225 473 q 260 213 225 292 q 355 74 294 133 q 494 -19 415 14 q 661 -52 573 -52 m 789 247 l 941 164 q 821 59 893 98 q 663 19 749 19 q 489 69 567 19 q 363 201 410 118 q 316 385 316 284 q 363 569 316 486 q 489 702 410 652 q 663 751 567 751 q 821 712 749 751 q 941 606 893 672 l 789 523 q 663 582 738 582 q 573 555 613 582 q 509 482 533 527 q 485 385 485 437 q 509 288 485 332 q 573 216 533 243 q 663 189 613 189 q 732 205 699 189 q 789 247 765 220 z "},"®":{"ha":781,"x_min":42,"x_max":739,"o":"m 390 277 q 214 324 293 277 q 89 451 135 372 q 42 626 42 530 q 89 801 42 722 q 215 927 135 880 q 390 974 294 974 q 567 926 488 974 q 693 799 647 878 q 739 626 739 719 q 691 450 739 529 q 565 324 644 371 q 390 277 485 277 m 390 399 q 505 429 453 399 q 587 511 556 460 q 617 626 617 563 q 587 740 617 689 q 505 822 556 792 q 390 853 453 853 q 276 822 327 853 q 194 740 224 792 q 163 626 163 689 q 194 511 163 563 q 276 429 224 460 q 390 399 327 399 m 294 488 l 294 783 l 409 783 q 473 756 447 783 q 499 690 499 728 q 450 608 499 631 l 520 488 l 442 488 l 377 597 l 363 597 l 363 488 l 294 488 m 363 665 l 409 665 q 424 672 418 665 q 431 690 431 679 q 409 715 431 715 l 363 715 l 363 665 z "},"™":{"ha":2103,"x_min":56,"x_max":2021,"o":"m 819 972 l 819 803 l 522 803 l 522 0 l 353 0 l 353 803 l 56 803 l 56 972 l 819 972 m 889 0 l 1078 972 l 1218 972 l 1455 349 l 1692 972 l 1832 972 l 2021 0 l 1848 0 l 1731 601 l 1513 22 l 1397 22 l 1178 601 l 1062 0 l 889 0 z "},"°":{"ha":635,"x_min":56,"x_max":579,"o":"m 318 489 q 184 525 244 489 q 90 621 125 562 q 56 750 56 681 q 91 880 56 821 q 185 975 126 940 q 318 1011 244 1011 q 451 975 392 1011 q 545 879 510 938 q 579 750 579 819 q 543 617 579 676 q 448 523 507 558 q 318 489 388 489 m 318 658 q 383 685 356 658 q 410 750 410 712 q 383 815 410 789 q 318 842 356 842 q 252 815 279 842 q 225 750 225 789 q 252 685 225 712 q 318 658 279 658 z "},"|":{"ha":364,"x_min":97,"x_max":267,"o":"m 97 972 l 267 972 l 267 -210 l 97 -210 l 97 972 z "},"¦":{"ha":336,"x_min":83,"x_max":253,"o":"m 83 972 l 253 972 l 253 451 l 83 451 l 83 972 m 83 311 l 253 311 l 253 -210 l 83 -210 l 83 311 z "},"†":{"ha":597,"x_min":56,"x_max":541,"o":"m 56 717 l 56 887 l 213 887 l 213 1042 l 383 1042 l 383 887 l 541 887 l 541 717 l 383 717 l 383 395 l 213 395 l 213 717 l 56 717 z "},"‡":{"ha":597,"x_min":56,"x_max":541,"o":"m 56 507 l 56 675 l 213 675 l 213 770 l 56 770 l 56 940 l 213 940 l 213 1042 l 383 1042 l 383 940 l 541 940 l 541 770 l 383 770 l 383 675 l 541 675 l 541 507 l 383 507 l 383 389 l 213 389 l 213 507 l 56 507 z "},"�":{"ha":1132,"x_min":83,"x_max":1049,"o":"m 567 -18 q 493 -4 529 -18 q 428 39 457 10 l 140 326 q 97 392 111 356 q 83 465 83 428 q 98 539 83 503 q 140 603 113 575 l 428 890 q 493 933 457 919 q 567 947 529 947 q 640 933 604 947 q 704 890 675 919 l 992 603 q 1035 538 1021 574 q 1049 465 1049 503 q 1035 392 1049 428 q 992 326 1021 356 l 704 39 q 640 -3 676 11 q 567 -18 604 -18 m 508 357 l 625 357 l 625 358 q 646 394 625 382 q 711 458 687 417 q 736 549 736 499 q 713 636 736 597 q 649 699 689 676 q 561 723 610 723 q 473 699 513 723 q 410 636 433 676 q 387 549 387 597 l 503 549 q 520 590 503 573 q 561 607 537 607 q 603 590 586 607 q 620 549 620 573 q 592 497 620 511 q 530 440 552 477 q 508 358 508 402 l 508 357 m 570 179 q 611 196 594 179 q 628 238 628 213 q 611 278 628 262 q 570 295 594 295 q 529 278 546 295 q 512 238 512 262 q 529 196 512 213 q 570 179 546 179 z "},"ʼ":{"ha":369,"x_min":28,"x_max":240,"o":"m 28 610 l 71 972 l 240 972 l 141 610 l 28 610 z "},"̈":{"ha":0,"x_min":278,"x_max":729,"o":"m 367 783 q 303 808 329 783 q 278 870 278 833 q 303 932 278 907 q 367 958 329 958 q 428 932 403 958 q 453 870 453 907 q 428 808 453 833 q 367 783 403 783 m 642 783 q 578 808 604 783 q 553 870 553 833 q 578 932 553 907 q 642 958 604 958 q 703 932 678 958 q 729 870 729 907 q 703 808 729 833 q 642 783 678 783 z "},"̇":{"ha":0,"x_min":278,"x_max":453,"o":"m 366 798 q 303 823 328 798 q 278 885 278 847 q 303 947 278 922 q 366 972 328 972 q 428 947 403 972 q 453 885 453 922 q 428 823 453 847 q 366 798 403 798 z "},"̀":{"ha":0,"x_min":222,"x_max":447,"o":"m 222 990 l 392 990 l 447 790 l 359 790 l 222 990 z "},"́":{"ha":0,"x_min":333,"x_max":558,"o":"m 333 790 l 389 990 l 558 990 l 422 790 l 333 790 z "},"̂":{"ha":0,"x_min":278,"x_max":584,"o":"m 347 972 l 515 972 l 584 810 l 474 810 l 432 913 l 388 810 l 278 810 l 347 972 z "},"̊":{"ha":0,"x_min":278,"x_max":535,"o":"m 407 755 q 316 793 353 755 q 278 885 278 832 q 316 975 278 937 q 407 1013 353 1013 q 498 975 460 1013 q 535 885 535 937 q 498 793 535 831 q 407 755 460 755 m 407 821 q 451 839 433 821 q 469 885 469 858 q 451 928 469 910 q 407 946 433 946 q 363 928 381 946 q 344 885 344 910 q 363 839 344 858 q 407 821 381 821 z "},"̃":{"ha":0,"x_min":202,"x_max":690,"o":"m 553 766 q 493 784 528 766 q 423 824 458 802 q 362 860 388 847 q 326 864 335 874 q 320 803 308 844 l 221 776 q 211 875 202 831 q 253 946 221 919 q 337 973 285 973 q 395 958 363 973 q 462 923 428 943 q 521 889 495 903 q 558 874 547 874 q 578 894 578 874 q 571 933 578 914 l 672 966 q 680 864 690 909 q 636 792 669 819 q 553 766 603 766 z "},"̧":{"ha":0,"x_min":278,"x_max":610,"o":"m 278 -212 l 278 -87 l 351 -87 q 415 -68 385 -87 q 465 -18 446 -49 q 484 46 484 13 l 484 119 l 610 119 l 610 48 q 575 -83 610 -24 q 480 -177 540 -142 q 349 -212 421 -212 l 278 -212 z "},"¨":{"ha":1007,"x_min":278,"x_max":729,"o":"m 367 783 q 303 808 329 783 q 278 870 278 833 q 303 932 278 907 q 367 958 329 958 q 428 932 403 958 q 453 870 453 907 q 428 808 453 833 q 367 783 403 783 m 642 783 q 578 808 604 783 q 553 870 553 833 q 578 932 553 907 q 642 958 604 958 q 703 932 678 958 q 729 870 729 907 q 703 808 729 833 q 642 783 678 783 z "},"˙":{"ha":731,"x_min":278,"x_max":453,"o":"m 366 798 q 303 823 328 798 q 278 885 278 847 q 303 947 278 922 q 366 972 328 972 q 428 947 403 972 q 453 885 453 922 q 428 823 453 847 q 366 798 403 798 z "},"`":{"ha":781,"x_min":222,"x_max":447,"o":"m 222 990 l 392 990 l 447 790 l 359 790 l 222 990 z "},"´":{"ha":781,"x_min":333,"x_max":558,"o":"m 333 790 l 389 990 l 558 990 l 422 790 l 333 790 z "},"˝":{"ha":629,"x_min":321,"x_max":631,"o":"m 321 790 l 376 990 l 546 990 l 409 790 l 321 790 m 406 1086 l 462 1286 l 631 1286 l 494 1086 l 406 1086 z "},"ˆ":{"ha":862,"x_min":278,"x_max":584,"o":"m 347 972 l 515 972 l 584 810 l 474 810 l 432 913 l 388 810 l 278 810 l 347 972 z "},"ˇ":{"ha":473,"x_min":83,"x_max":390,"o":"m 153 810 l 83 972 l 194 972 l 238 869 l 279 972 l 390 972 l 320 810 l 153 810 z "},"˘":{"ha":794,"x_min":167,"x_max":628,"o":"m 397 783 q 282 815 334 783 q 198 898 229 846 q 167 1014 167 951 l 272 1014 q 309 925 272 962 q 397 889 347 889 q 485 925 449 889 q 522 1014 522 961 l 628 1014 q 597 897 628 949 q 513 814 565 845 q 397 783 460 783 z "},"˚":{"ha":813,"x_min":278,"x_max":535,"o":"m 407 755 q 316 793 353 755 q 278 885 278 832 q 316 975 278 937 q 407 1013 353 1013 q 498 975 460 1013 q 535 885 535 937 q 498 793 535 831 q 407 755 460 755 m 407 821 q 451 839 433 821 q 469 885 469 858 q 451 928 469 910 q 407 946 433 946 q 363 928 381 946 q 344 885 344 910 q 363 839 344 858 q 407 821 381 821 z "},"˜":{"ha":869,"x_min":199,"x_max":687,"o":"m 550 753 q 489 771 524 753 q 419 811 454 789 q 358 847 385 833 q 323 851 332 860 q 317 790 305 831 l 217 763 q 208 862 199 817 q 250 933 217 906 q 333 960 282 960 q 392 945 359 960 q 458 910 425 930 q 517 875 492 890 q 554 860 543 860 q 575 881 575 860 q 567 920 574 901 l 668 953 q 676 851 687 896 q 632 779 665 806 q 550 753 599 753 z "},"¯":{"ha":833,"x_min":182,"x_max":651,"o":"m 182 982 l 651 982 l 651 813 l 182 813 l 182 982 z "},"¸":{"ha":888,"x_min":278,"x_max":610,"o":"m 278 -212 l 278 -87 l 351 -87 q 415 -68 385 -87 q 465 -18 446 -49 q 484 46 484 13 l 484 119 l 610 119 l 610 48 q 575 -83 610 -24 q 480 -177 540 -142 q 349 -212 421 -212 l 278 -212 z "},"˛":{"ha":811,"x_min":182,"x_max":514,"o":"m 443 -294 q 311 -259 371 -294 q 217 -165 252 -224 q 182 -34 182 -106 l 182 43 l 308 43 l 308 -36 q 327 -100 308 -69 q 376 -150 346 -131 q 441 -169 407 -169 l 514 -169 l 514 -294 l 443 -294 z "}}}
